<?xml version="1.0" standalone="no"?>
<!DOCTYPE svg PUBLIC "-//W3C//DTD SVG 1.1//EN" "http://www.w3.org/Graphics/SVG/1.1/DTD/svg11.dtd">
<!--Generator: Xara Designer (www.xara.com), SVG filter version: 6.0.0.4-->
<svg stroke-width="0.501" stroke-linejoin="bevel" fill-rule="evenodd" xmlns:xlink="http://www.w3.org/1999/xlink" xmlns="http://www.w3.org/2000/svg" version="1.1" overflow="visible" width="1224pt" height="868.498pt" viewBox="0 0 1224 868.498">
 <defs>
  <linearGradient id="LinearGradient" gradientUnits="userSpaceOnUse" x1="0" y1="0" x2="-26.518" y2="363.075" gradientTransform="translate(1315.37 50.145)">
   <stop offset="0" stop-color="#207ce5"/>
   <stop offset="1" stop-color="#499bea"/>
  </linearGradient>
  <linearGradient id="LinearGradient_1" gradientUnits="userSpaceOnUse" x1="0" y1="0" x2="-26.518" y2="363.075" gradientTransform="translate(1315.37 50.145)">
   <stop offset="0" stop-color="#207ce5"/>
   <stop offset="1" stop-color="#499bea"/>
  </linearGradient>
  <linearGradient id="LinearGradient_2" gradientUnits="userSpaceOnUse" x1="0" y1="0" x2="-26.518" y2="363.075" gradientTransform="translate(1315.37 50.145)">
   <stop offset="0" stop-color="#207ce5"/>
   <stop offset="1" stop-color="#499bea"/>
  </linearGradient>
  <linearGradient id="LinearGradient_3" gradientUnits="userSpaceOnUse" x1="0" y1="0" x2="-26.518" y2="363.075" gradientTransform="translate(1315.37 50.145)">
   <stop offset="0" stop-color="#207ce5"/>
   <stop offset="1" stop-color="#499bea"/>
  </linearGradient>
  <linearGradient id="LinearGradient_4" gradientUnits="userSpaceOnUse" x1="0" y1="0" x2="-26.518" y2="363.075" gradientTransform="translate(1315.37 50.145)">
   <stop offset="0" stop-color="#207ce5"/>
   <stop offset="1" stop-color="#499bea"/>
  </linearGradient>
  <linearGradient id="LinearGradient_5" gradientUnits="userSpaceOnUse" x1="0" y1="0" x2="-26.518" y2="363.075" gradientTransform="translate(1315.37 50.145)">
   <stop offset="0" stop-color="#207ce5"/>
   <stop offset="1" stop-color="#499bea"/>
  </linearGradient>
  <linearGradient id="LinearGradient_6" gradientUnits="userSpaceOnUse" x1="0" y1="0" x2="-26.518" y2="363.075" gradientTransform="translate(1315.37 50.145)">
   <stop offset="0" stop-color="#207ce5"/>
   <stop offset="1" stop-color="#499bea"/>
  </linearGradient>
  <linearGradient id="LinearGradient_7" gradientUnits="userSpaceOnUse" x1="0" y1="0" x2="-26.518" y2="363.075" gradientTransform="translate(1315.37 50.145)">
   <stop offset="0" stop-color="#207ce5"/>
   <stop offset="1" stop-color="#499bea"/>
  </linearGradient>
  <linearGradient id="LinearGradient_8" gradientUnits="userSpaceOnUse" x1="0" y1="0" x2="-26.518" y2="363.075" gradientTransform="translate(1315.37 50.145)">
   <stop offset="0" stop-color="#207ce5"/>
   <stop offset="1" stop-color="#499bea"/>
  </linearGradient>
  <linearGradient id="LinearGradient_9" gradientUnits="userSpaceOnUse" x1="0" y1="0" x2="-26.518" y2="363.075" gradientTransform="translate(1315.37 50.145)">
   <stop offset="0" stop-color="#207ce5"/>
   <stop offset="1" stop-color="#499bea"/>
  </linearGradient>
  <linearGradient id="LinearGradient_10" gradientUnits="userSpaceOnUse" x1="0" y1="0" x2="-26.518" y2="363.075" gradientTransform="translate(1315.37 50.145)">
   <stop offset="0" stop-color="#207ce5"/>
   <stop offset="1" stop-color="#499bea"/>
  </linearGradient>
  <linearGradient id="LinearGradient_11" gradientUnits="userSpaceOnUse" x1="0" y1="0" x2="-26.518" y2="363.075" gradientTransform="translate(1315.37 50.145)">
   <stop offset="0" stop-color="#207ce5"/>
   <stop offset="1" stop-color="#499bea"/>
  </linearGradient>
  <linearGradient id="LinearGradient_12" gradientUnits="userSpaceOnUse" x1="0" y1="0" x2="-26.518" y2="363.075" gradientTransform="translate(1315.37 50.145)">
   <stop offset="0" stop-color="#207ce5"/>
   <stop offset="1" stop-color="#499bea"/>
  </linearGradient>
  <linearGradient id="LinearGradient_13" gradientUnits="userSpaceOnUse" x1="0" y1="0" x2="-26.518" y2="363.075" gradientTransform="translate(1315.37 50.145)">
   <stop offset="0" stop-color="#207ce5"/>
   <stop offset="1" stop-color="#499bea"/>
  </linearGradient>
  <linearGradient id="LinearGradient_14" gradientUnits="userSpaceOnUse" x1="0" y1="0" x2="-26.518" y2="363.075" gradientTransform="translate(1315.37 50.145)">
   <stop offset="0" stop-color="#207ce5"/>
   <stop offset="1" stop-color="#499bea"/>
  </linearGradient>
  <linearGradient id="LinearGradient_15" gradientUnits="userSpaceOnUse" x1="0" y1="0" x2="-26.518" y2="363.075" gradientTransform="translate(1315.37 50.145)">
   <stop offset="0" stop-color="#207ce5"/>
   <stop offset="1" stop-color="#499bea"/>
  </linearGradient>
  <linearGradient id="LinearGradient_16" gradientUnits="userSpaceOnUse" x1="0" y1="0" x2="-26.518" y2="363.075" gradientTransform="translate(1315.37 50.145)">
   <stop offset="0" stop-color="#207ce5"/>
   <stop offset="1" stop-color="#499bea"/>
  </linearGradient>
  <linearGradient id="LinearGradient_17" gradientUnits="userSpaceOnUse" x1="0" y1="0" x2="-26.518" y2="363.075" gradientTransform="translate(1315.37 50.145)">
   <stop offset="0" stop-color="#207ce5"/>
   <stop offset="1" stop-color="#499bea"/>
  </linearGradient>
  <linearGradient id="LinearGradient_18" gradientUnits="userSpaceOnUse" x1="0" y1="0" x2="-26.518" y2="363.075" gradientTransform="translate(1315.37 50.145)">
   <stop offset="0" stop-color="#207ce5"/>
   <stop offset="1" stop-color="#499bea"/>
  </linearGradient>
  <linearGradient id="LinearGradient_19" gradientUnits="userSpaceOnUse" x1="0" y1="0" x2="-26.518" y2="363.075" gradientTransform="translate(1315.37 50.145)">
   <stop offset="0" stop-color="#207ce5"/>
   <stop offset="1" stop-color="#499bea"/>
  </linearGradient>
  <linearGradient id="LinearGradient_20" gradientUnits="userSpaceOnUse" x1="0" y1="0" x2="-26.518" y2="363.075" gradientTransform="translate(1315.37 50.145)">
   <stop offset="0" stop-color="#207ce5"/>
   <stop offset="1" stop-color="#499bea"/>
  </linearGradient>
 </defs>
 <g id="Document" fill="none" stroke="black" font-family="Times New Roman" font-size="16" transform="scale(1 -1)">
  <g id="Spread" transform="translate(0 -868.498)">
   <g id="Engine">
    <path d="M 240.421,817.084 L 403.601,817.084 C 389.236,805.49 374.399,795.126 362.813,776.296 L 362.813,613.112 C 337.184,581.9 310.1,582.962 281.217,613.112 L 281.217,776.296 C 269.41,792.164 255.424,805.273 240.421,817.084 L 240.421,817.084 Z" stroke="none" stroke-linejoin="miter" marker-start="none" marker-end="none" fill="url(#LinearGradient)"/>
    <path d="M 256.743,611.076 C 192.85,574.532 188.568,394.146 199.629,372.424 L 844.185,380.583 L 844.185,602.216 L 605.537,606.993 C 570.504,579.677 531.099,567.397 483.153,611.076 L 377.087,613.112 C 344.068,583.959 310.46,569.98 275.102,611.076 L 256.743,611.076 Z" stroke="none" stroke-linejoin="miter" marker-start="none" marker-end="none" fill="url(#LinearGradient_1)"/>
    <path d="M 587.182,606.277 C 559.814,585.59 530.728,579.328 497.431,608.317 L 497.431,636.874 L 587.182,636.874 L 587.182,606.277 Z" stroke="none" stroke-linejoin="miter" marker-start="none" marker-end="none" fill="url(#LinearGradient_2)"/>
    <path d="M 497.431,643.705 L 587.182,643.705 L 587.182,682.461 L 497.431,682.461 L 497.431,643.705 Z" stroke="none" stroke-linejoin="miter" marker-start="none" marker-end="none" fill="url(#LinearGradient_3)"/>
    <path d="M 497.431,689.717 L 587.182,689.717 C 584.479,723.19 570.984,747.667 539.108,750.21 C 517.083,746.97 498.264,730.449 497.431,689.717 Z" stroke="#499bea" stroke-linejoin="round" stroke-linecap="round" stroke-width="2.269" marker-start="none" marker-end="none" stroke-miterlimit="79.8403193612775" fill="url(#LinearGradient_4)"/>
    <path d="M 189.434,494.808 L 185.351,372.424 C 164.747,379.582 157.87,402.845 160.873,437.698 C 163.569,482.056 174.795,494.748 189.434,494.808 Z" stroke="none" stroke-linejoin="miter" marker-start="none" marker-end="none" fill="url(#LinearGradient_5)"/>
    <path d="M 842.149,347.943 L 203.709,343.867 C 208.426,315.606 218.186,294.886 236.345,286.757 L 842.149,294.912 L 842.149,347.943 Z" stroke="none" stroke-linejoin="round" stroke-linecap="round" stroke-width="2.269" marker-start="none" marker-end="none" stroke-miterlimit="79.8403193612775" fill="url(#LinearGradient_6)"/>
    <path d="M 251.756,260.239 L 251.756,160.29 L 525.989,160.29 L 525.989,260.239 L 251.756,260.239 Z" stroke="none" stroke-linejoin="round" stroke-linecap="round" stroke-width="2.269" marker-start="none" marker-end="none" stroke-miterlimit="79.8403193612775" fill="url(#LinearGradient_7)"/>
    <path d="M 833.986,662.071 L 1186.69,662.071 C 1173.04,684.629 1157,706.684 1133.83,727.341 L 844.185,727.341 C 836.854,713.52 831.354,693.028 833.986,662.071 Z" stroke="#499bea" stroke-linejoin="round" stroke-linecap="round" stroke-width="2.269" marker-start="none" marker-end="none" stroke-miterlimit="79.8403193612775" fill="url(#LinearGradient_8)"/>
    <path d="M 852.348,290.833 L 852.348,649.829 L 1186.87,649.829 L 1186.87,637.59 C 1185.42,635.85 1183.19,634.609 1180.74,633.514 L 1137.91,617.192 C 1127.8,610.394 1119.22,598.68 1111.39,584.555 C 1100.64,539.875 1098.52,492.956 1097.12,445.857 L 1105.28,290.833 L 852.348,290.833 Z M 1052.24,425.455 L 1052.24,507.047 L 884.981,507.332 L 884.981,425.455 L 1052.24,425.455 Z M 1052.24,519.282 L 1052.24,596.794 L 884.981,596.794 L 884.981,519.282 L 1052.24,519.282 Z" stroke="#499bea" stroke-linejoin="round" stroke-width="2.269" stroke-linecap="round" marker-start="none" marker-end="none" stroke-miterlimit="79.8403193612775" fill="url(#LinearGradient_9)"/>
    <path d="M 509.575,56.261 C 488.185,32.618 451.629,30.791 427.986,52.182 C 404.343,73.572 402.516,110.129 423.906,133.771 C 445.296,157.414 481.853,159.241 505.496,137.851 C 529.139,116.461 530.966,79.904 509.575,56.261 Z" stroke="none" stroke-width="2.269" stroke-linecap="round" stroke-linejoin="round" marker-start="none" marker-end="none" stroke-miterlimit="79.8403193612775" fill="url(#LinearGradient_10)"/>
    <path d="M 764.644,71.955 C 720.39,25.788 646.996,24.238 600.83,68.492 C 554.663,112.745 553.113,186.14 597.367,232.306 C 641.62,278.472 715.015,280.023 761.181,235.769 C 807.347,191.516 808.897,118.121 764.644,71.955 Z" stroke="none" stroke-width="2.269" stroke-linecap="round" stroke-linejoin="round" marker-start="none" marker-end="none" stroke-miterlimit="79.8403193612775" fill="url(#LinearGradient_11)"/>
    <path d="M 389.231,54.221 C 367.841,30.578 331.285,28.752 307.642,50.142 C 283.999,71.532 282.172,108.089 303.562,131.732 C 324.952,155.375 361.509,157.201 385.152,135.811 C 408.795,114.421 410.622,77.864 389.231,54.221 Z" stroke="none" stroke-width="2.269" stroke-linecap="round" stroke-linejoin="round" marker-start="none" marker-end="none" stroke-miterlimit="79.8403193612775" fill="url(#LinearGradient_12)"/>
    <path d="M 1015.53,73.995 C 971.277,27.828 897.883,26.278 851.717,70.532 C 805.55,114.785 804,188.18 848.253,234.346 C 892.507,280.512 965.902,282.062 1012.07,237.809 C 1058.23,193.556 1059.78,120.161 1015.53,73.995 Z" stroke="none" stroke-width="2.269" stroke-linecap="round" stroke-linejoin="round" marker-start="none" marker-end="none" stroke-miterlimit="79.8403193612775" fill="url(#LinearGradient_13)"/>
    <path d="M 269.143,59.024 L 269.485,142.115 L 253.766,142.115 L 245.168,59.024 L 269.143,59.024 Z" stroke="none" stroke-linejoin="round" stroke-linecap="round" stroke-width="3.183" marker-start="none" marker-end="none" stroke-miterlimit="79.8403193612775" fill="url(#LinearGradient_14)"/>
    <path d="M 233.713,59.024 L 205.059,59.024 L 230.849,159.311 L 242.307,193.699 L 233.713,59.024 Z" stroke="none" stroke-linejoin="round" stroke-linecap="round" stroke-width="3.183" marker-start="none" marker-end="none" stroke-miterlimit="79.8403193612775" fill="url(#LinearGradient_15)"/>
    <path d="M 190.728,59.024 L 159.212,59.024 L 193.596,136.39 L 240.586,213.748 L 190.728,59.024 Z" stroke="none" stroke-linejoin="round" stroke-linecap="round" stroke-width="3.183" marker-start="none" marker-end="none" stroke-miterlimit="79.8403193612775" fill="url(#LinearGradient_16)"/>
    <path d="M 142.02,59.024 L 116.23,59.024 L 159.212,139.254 L 240.586,228.079 L 179.269,133.525 L 142.02,59.024 Z" stroke="none" stroke-linejoin="round" stroke-linecap="round" stroke-width="3.183" marker-start="none" marker-end="none" stroke-miterlimit="79.8403193612775" fill="url(#LinearGradient_17)"/>
    <path d="M 105.915,59.024 L 78.981,59.024 L 143.164,159.311 L 240.586,236.677 L 151.762,144.984 L 105.915,59.024 Z" stroke="none" stroke-linejoin="round" stroke-linecap="round" stroke-width="3.183" marker-start="none" marker-end="none" stroke-miterlimit="79.8403193612775" fill="url(#LinearGradient_18)"/>
    <path d="M 65.805,59.024 L 36,59.024 L 121.963,167.905 L 209.074,230.94 L 240.586,251.732 L 240.586,245.271 L 136.291,165.04 L 65.805,59.024 Z" stroke="none" stroke-linejoin="round" stroke-linecap="round" stroke-width="3.183" marker-start="none" marker-end="none" stroke-miterlimit="79.8403193612775" fill="url(#LinearGradient_19)"/>
    <path d="M 240.421,817.084 L 240.421,831.366 L 403.608,831.685 L 403.601,817.084 L 323.547,817.084 L 240.421,817.084 Z" stroke="#499bea" stroke-linejoin="round" stroke-linecap="round" stroke-width="3.183" marker-start="none" marker-end="none" stroke-miterlimit="79.8403193612775" fill="url(#LinearGradient_20)"/>
   </g>
  </g>
 </g>
</svg>
