<?xml version="1.0" standalone="no"?>
<!DOCTYPE svg PUBLIC "-//W3C//DTD SVG 1.1//EN" "http://www.w3.org/Graphics/SVG/1.1/DTD/svg11.dtd">
<!--Generator: Xara Designer (www.xara.com), SVG filter version: 6.0.0.4-->
<svg stroke-width="0.501" stroke-linejoin="bevel" fill-rule="evenodd" xmlns:xlink="http://www.w3.org/1999/xlink" xmlns="http://www.w3.org/2000/svg" version="1.1" overflow="visible" width="1224pt" height="792pt" viewBox="0 0 1224 792">
 <defs>
  <linearGradient id="LinearGradient" gradientUnits="userSpaceOnUse" x1="0" y1="0" x2="-73.431" y2="670.08" gradientTransform="translate(1358.9 6.105)">
   <stop offset="0" stop-color="#5d970d"/>
   <stop offset="1" stop-color="#6cba00"/>
  </linearGradient>
  <linearGradient id="LinearGradient_1" gradientUnits="userSpaceOnUse" x1="0" y1="0" x2="-73.431" y2="670.08" gradientTransform="translate(1358.9 6.105)">
   <stop offset="0" stop-color="#5d970d"/>
   <stop offset="1" stop-color="#6cba00"/>
  </linearGradient>
  <linearGradient id="LinearGradient_2" gradientUnits="userSpaceOnUse" x1="0" y1="0" x2="-73.431" y2="670.08" gradientTransform="translate(1358.9 6.105)">
   <stop offset="0" stop-color="#5d970d"/>
   <stop offset="1" stop-color="#6cba00"/>
  </linearGradient>
  <linearGradient id="LinearGradient_3" gradientUnits="userSpaceOnUse" x1="0" y1="0" x2="-73.431" y2="670.08" gradientTransform="translate(1358.9 6.105)">
   <stop offset="0" stop-color="#5d970d"/>
   <stop offset="1" stop-color="#6cba00"/>
  </linearGradient>
  <linearGradient id="LinearGradient_4" gradientUnits="userSpaceOnUse" x1="0" y1="0" x2="-73.431" y2="670.08" gradientTransform="translate(1358.9 6.105)">
   <stop offset="0" stop-color="#5d970d"/>
   <stop offset="1" stop-color="#6cba00"/>
  </linearGradient>
  <linearGradient id="LinearGradient_5" gradientUnits="userSpaceOnUse" x1="0" y1="0" x2="-73.431" y2="670.08" gradientTransform="translate(1358.9 6.105)">
   <stop offset="0" stop-color="#5d970d"/>
   <stop offset="1" stop-color="#6cba00"/>
  </linearGradient>
  <linearGradient id="LinearGradient_6" gradientUnits="userSpaceOnUse" x1="0" y1="0" x2="-73.431" y2="670.08" gradientTransform="translate(1358.9 6.105)">
   <stop offset="0" stop-color="#5d970d"/>
   <stop offset="1" stop-color="#6cba00"/>
  </linearGradient>
  <linearGradient id="LinearGradient_7" gradientUnits="userSpaceOnUse" x1="0" y1="0" x2="-73.431" y2="670.08" gradientTransform="translate(1358.9 6.105)">
   <stop offset="0" stop-color="#5d970d"/>
   <stop offset="1" stop-color="#6cba00"/>
  </linearGradient>
 </defs>
 <g id="Document" fill="none" stroke="black" font-family="Times New Roman" font-size="16" transform="scale(1 -1)">
  <g id="Spread" transform="translate(0 -792)">
   <g id="Layer 1">
    <path d="M 397.122,256.841 C 392.7,257.892 388.482,259.996 384.761,262.602 C 382.601,264.122 380.859,266.2 379.163,268.224 C 377.941,269.69 376.771,271.229 375.873,272.908 C 375.531,273.524 375.431,274.275 375.088,274.892 C 373.223,278.304 372.021,283.495 368.23,284.349 C 365.567,284.944 363.567,281.438 361.041,280.415 C 358.493,279.388 355.811,278.624 353.097,278.203 C 352.84,278.167 352.557,278.245 352.308,278.173 C 351.081,277.815 350.136,276.782 348.981,276.233 C 347.015,275.313 344.921,274.66 342.859,273.985 C 341.921,273.68 340.961,273.317 339.983,273.153 C 334.018,272.137 327.862,271.465 321.846,272.142 C 318.249,272.55 314.601,273.482 311.377,275.156 C 310.632,275.549 310.176,276.422 309.398,276.76 C 308.79,277.021 308.021,276.76 307.429,277.06 C 303.098,279.284 300.008,283.536 297.216,287.52 C 296.179,289.002 296.606,291.955 294.859,292.423 C 292.728,292.992 291.429,289.532 289.391,288.712 C 287.137,287.795 284.619,287.652 282.198,287.446 C 281.008,287.341 279.797,287.288 278.622,287.441 C 274.63,287.951 270.623,288.888 266.948,290.513 C 265.488,291.152 264.181,292.132 262.923,293.114 C 260.352,295.114 257.997,297.418 255.754,299.792 C 254.825,300.775 253.88,301.782 253.138,302.93 C 252.513,303.901 252.268,305.106 251.598,306.053 C 251.16,306.679 250.399,307.077 249.972,307.722 C 248.371,310.174 247.204,312.992 246.666,315.865 C 246.497,316.805 246.933,317.819 246.713,318.741 C 246.56,319.394 246.152,319.978 245.775,320.53 C 245.451,321.007 245.135,321.572 244.624,321.854 C 243.035,322.738 240.828,323.61 239.251,322.725 C 238.439,322.269 238.743,320.884 238.195,320.129 C 235.016,315.746 230.797,311.605 225.734,309.665 C 222.49,308.428 218.635,308.317 215.311,309.322 C 209.366,311.123 204.165,315.419 200.141,320.141 C 197.174,323.632 195.599,328.158 194.059,332.469 C 193.438,334.194 193.494,336.143 192.801,337.848 C 192.373,338.906 192.139,340.458 191.046,340.787 C 190.588,340.917 190.191,340.29 189.726,340.145 C 184.229,338.412 178.357,336.617 172.641,337.357 C 165.245,338.328 158.012,341.828 152.211,346.515 C 133.91,361.314 120.827,382.327 110.491,403.464 C 109.684,405.124 109.411,407 108.98,408.789 C 106.604,418.524 103.889,428.322 103.004,438.255 C 101.336,456.753 102.504,475.555 105.041,493.965 C 105.407,496.642 105.981,499.338 106.96,501.865 C 107.492,503.244 108.3,504.523 109.097,505.768 C 110.989,508.736 112.67,512.007 115.351,514.281 C 121.639,519.608 129.601,522.86 137.421,525.458 C 172.831,537.228 208.957,542.218 247.7,544.765 C 287.491,547.391 329.883,552.276 347.686,557.818 L 338.189,503.665 L 338.122,503.289 L 338.118,503.262 L 337.957,502.346 C 337.461,498.322 338.621,494.106 341.518,490.846 C 346.877,484.753 356.174,484.164 362.26,489.53 C 364.859,491.824 366.458,494.836 367.01,498.017 L 367.023,498.017 L 378.287,562.239 C 387.954,564.062 399.378,566.626 411.756,570.268 L 405.635,535.358 L 405.571,534.987 L 405.562,534.949 L 405.402,534.035 C 404.909,530.01 406.068,525.804 408.962,522.536 C 414.325,516.452 423.621,515.863 429.705,521.227 C 432.295,523.519 433.902,526.53 434.454,529.706 L 434.466,529.706 L 443.539,581.458 C 448.604,583.564 453.715,585.865 458.817,588.372 C 464.933,591.366 471.004,594.539 476.952,597.826 L 470.633,561.791 L 470.565,561.424 L 470.565,561.387 L 470.399,560.467 C 469.907,556.448 471.063,552.242 473.966,548.973 C 479.326,542.886 488.616,542.299 494.707,547.664 C 497.302,549.956 498.9,552.967 499.452,556.143 L 499.464,556.143 L 510.312,618.003 C 522.646,626.102 533.879,634.189 543.384,641.541 L 534.888,593.097 L 534.652,591.767 C 534.158,587.748 535.318,583.542 538.216,580.273 C 543.577,574.186 552.876,573.595 558.958,578.961 C 561.556,581.257 563.155,584.264 563.708,587.444 L 563.717,587.444 L 579.975,680.145 C 600.458,709.826 662.562,753.677 667.515,757.229 C 673.019,761.182 710.513,770.584 734.331,750.817 C 754.947,733.712 731.236,659.264 720.291,651.669 C 705.409,641.335 736.318,623.79 754.715,612.66 C 761.199,608.735 826.83,569.612 862.572,564.467 C 864.93,564.129 883.905,559.152 899.29,562.175 C 914.114,565.081 925.42,575.911 925.44,579.529 C 925.44,579.909 942.281,621.942 965.836,649.371 C 982.531,668.822 994.948,675.787 1013.17,676.938 C 1029.94,677.994 1045.74,666.806 1059.55,657.252 C 1061.43,655.949 1063.07,654.188 1064.3,652.262 C 1075.54,634.755 1081.74,618.995 1087.46,594.304 C 1091.22,578.063 1095.77,515.943 1102.56,477.165 C 1106.47,454.817 1105.27,441.79 1117.29,410.722 C 1131.95,372.835 1118.98,305.426 1098.18,304.189 C 1097.26,304.13 1080.68,296.52 1064.51,291.39 C 1055.74,288.609 1039.31,284.066 1020.91,279.919 C 1007.44,276.877 992.25,279.865 981.9,279.919 C 980.863,279.923 980.175,278.54 979.605,277.621 C 978.336,275.571 979.115,272.339 977.307,270.739 C 971.228,265.337 961.478,264.893 953.4,265.813 C 952.574,265.904 951.869,266.476 951.129,266.85 C 950.313,267.269 949.516,267.75 948.713,268.191 C 947.951,268.614 947.181,269.04 946.422,269.474 C 945.495,269.998 944.541,270.508 943.646,271.1 C 939.189,274.055 936.083,280.167 930.755,280.692 C 930.156,280.751 929.548,280.333 929.12,279.919 C 926.677,277.523 927.532,272.371 924.529,270.739 C 918.446,267.427 910.385,270.668 903.877,273.032 C 898.695,274.916 895.518,281.147 890.107,282.214 C 886.286,282.965 882.104,281.696 878.632,279.919 C 876.73,278.936 875.582,276.873 873.92,275.52 C 871.785,273.782 869.672,271.884 867.162,270.739 C 864.293,269.424 861.126,268.231 857.978,268.442 C 853.874,268.715 849.757,270.508 846.509,273.032 C 844.839,274.325 844.733,277.383 842.776,278.152 C 838.152,279.966 834.679,278.54 828.15,275.326 C 821.36,271.989 817.6,271.509 812.09,270.739 C 808.303,270.209 804.362,270.013 800.611,270.739 C 796.567,271.512 792.576,273.06 789.142,275.326 C 787.332,276.515 786.675,280.041 784.549,279.919 C 782.267,279.784 778.271,280.496 775.369,279.919 C 773.436,279.532 770.567,277.084 768.485,275.326 C 763.743,271.314 758.322,269.592 750.125,270.739 C 747.771,271.06 743.569,270.572 743.24,270.739 C 740.663,272.03 732.429,275.528 729.472,279.919 C 727.849,282.333 728.714,283.753 727.182,284.506 C 723.675,286.217 719.394,283.475 715.707,282.214 C 712.472,281.106 711.093,279.064 706.524,277.621 C 697.594,274.805 694.253,273.208 681.285,275.326 C 675.408,276.283 674.304,281.944 660.631,282.214 C 660.054,282.223 657.409,280.614 656.041,277.621 C 655.004,275.332 655.607,272.275 653.742,270.739 C 649.38,267.116 642.542,268.665 636.877,268.436 C 633.312,268.293 629.001,267.006 626.183,269.009 C 621.825,272.111 617.721,276.802 610.145,277.621 C 605.048,278.173 600.758,268.442 596.747,266.897 C 588.214,263.616 570.496,269.829 567.238,271.971 C 565.438,273.153 561.956,272.167 557.363,270.739 C 554.123,269.72 555.322,264.159 552.778,263.852 C 549.093,263.411 545.328,263.239 541.6,263.155 C 534.31,262.978 526.829,261.896 519.706,263.476 C 517.592,263.945 515.397,264.193 513.761,266.15 C 511.442,268.944 512.453,272.254 510.136,273.926 C 506.745,276.359 501.216,277.57 497.702,275.326 C 495.664,274.02 496.871,270.361 495.406,268.442 C 493.733,266.255 491.133,264.733 488.527,263.852 C 483.052,262.005 476.989,262.586 471.219,262.751 C 465.613,262.91 459.79,262.937 454.493,264.78 C 452.139,265.603 450.133,267.252 448.105,268.698 C 446.719,269.698 445.862,271.779 444.166,271.98 C 443.668,272.042 443.264,271.521 442.799,271.317 C 441.955,270.951 441.019,270.783 440.222,270.315 C 439.98,270.17 439.787,269.934 439.568,269.756 C 435.952,266.826 432.822,262.987 428.54,261.164 C 419.228,257.19 408.574,257.372 398.464,256.797 C 398.021,256.778 397.556,256.738 397.122,256.841 Z M 337.957,502.346 L 338.122,503.289 L 338.189,503.712 C 338.084,503.262 338.008,502.797 337.957,502.346 Z M 405.402,534.035 L 405.571,534.987 L 405.635,535.405 C 405.532,534.949 405.453,534.494 405.402,534.035 Z M 470.399,560.467 L 470.565,561.424 L 470.633,561.842 C 470.531,561.387 470.454,560.928 470.399,560.467 Z M 534.821,592.693 L 534.652,591.767 C 534.709,592.229 534.787,592.693 534.888,593.144 L 534.821,592.693 Z" stroke="none" stroke-linejoin="miter" marker-start="none" marker-end="none" fill="url(#LinearGradient)"/>
    <path d="M 36.014,228.602 L 36.014,291.344 L 202.779,291.344 C 205.6,289.107 208.742,287.297 212.127,286.289 C 215.479,285.291 219.363,285.391 222.638,286.636 C 225.368,287.67 227.855,289.339 230.076,291.344 L 244.068,291.344 C 244.692,288.99 245.731,286.711 247.066,284.689 C 247.492,284.038 248.261,283.648 248.707,283.015 C 249.38,282.075 249.623,280.872 250.255,279.898 C 250.999,278.751 251.957,277.751 252.893,276.751 C 255.158,274.38 257.529,272.087 260.125,270.078 C 261.397,269.099 262.713,268.117 264.176,267.48 C 267.889,265.858 271.923,264.916 275.942,264.404 C 277.133,264.261 278.352,264.306 279.545,264.408 C 281.992,264.618 284.532,264.759 286.801,265.673 C 288.859,266.498 290.167,269.951 292.307,269.395 C 294.069,268.923 293.638,265.965 294.689,264.485 C 297.507,260.497 300.615,256.251 304.988,254.03 C 305.578,253.724 306.363,253.988 306.969,253.724 C 307.748,253.382 308.213,252.509 308.969,252.12 C 312.214,250.455 315.886,249.517 319.523,249.111 C 325.58,248.43 331.786,249.108 337.802,250.116 C 338.789,250.284 339.749,250.643 340.705,250.951 C 342.78,251.626 344.889,252.276 346.867,253.199 C 348.036,253.745 348.994,254.782 350.229,255.14 C 350.479,255.209 350.761,255.132 351.022,255.165 C 353.761,255.591 356.464,256.35 359.024,257.381 C 361.576,258.406 363.589,261.912 366.271,261.316 C 370.104,260.463 371.304,255.271 373.189,251.862 C 373.531,251.239 373.637,250.496 373.979,249.862 C 374.882,248.197 376.064,246.643 377.295,245.193 C 379.007,243.169 380.764,241.09 382.948,239.561 C 386.693,236.956 390.942,234.858 395.397,233.804 C 395.84,233.706 396.308,233.748 396.75,233.771 C 406.943,234.334 417.682,234.162 427.073,238.13 C 431.387,239.955 434.539,243.793 438.184,246.724 C 438.407,246.901 438.602,247.134 438.851,247.282 C 439.644,247.749 440.601,247.915 441.445,248.285 C 441.909,248.488 442.321,249.007 442.821,248.948 C 444.532,248.737 445.395,246.662 446.793,245.67 C 448.839,244.214 450.855,242.568 453.234,241.747 C 458.574,239.899 464.436,239.873 470.093,239.718 C 475.911,239.549 482.018,238.974 487.531,240.823 C 490.167,241.7 492.791,243.22 494.474,245.409 C 495.947,247.332 494.741,250.995 496.791,252.293 C 500.33,254.53 505.907,253.318 509.317,250.889 C 511.661,249.23 510.635,245.915 512.981,243.109 C 514.627,241.151 516.837,240.906 518.971,240.438 C 526.151,238.853 533.681,239.949 541.038,240.118 C 544.797,240.205 548.59,240.38 552.309,240.823 C 554.87,241.126 553.663,246.687 556.932,247.705 C 561.559,249.137 565.07,250.116 566.885,248.93 C 570.171,246.796 588.022,240.578 596.625,243.859 C 600.669,245.409 604.998,255.14 610.133,254.588 C 617.774,253.761 621.906,249.075 626.301,245.97 C 629.141,243.966 633.486,245.26 637.079,245.404 C 642.792,245.636 649.689,244.085 654.089,247.705 C 655.96,249.24 655.354,252.298 656.396,254.588 C 657.78,257.582 660.445,259.19 661.027,259.178 C 674.809,258.915 675.923,253.246 681.846,252.293 C 694.919,250.17 698.284,251.774 707.297,254.588 C 711.894,256.021 713.282,258.068 716.547,259.178 C 720.255,260.444 724.574,263.186 728.109,261.472 C 729.663,260.721 728.788,259.302 730.42,256.883 C 733.4,252.487 741.706,248.99 744.304,247.705 C 744.63,247.538 748.865,248.028 751.244,247.705 C 759.509,246.56 764.967,248.28 769.754,252.293 C 771.845,254.061 774.74,256.493 776.689,256.883 C 779.607,257.47 783.642,256.747 785.943,256.883 C 788.084,257.005 788.745,253.482 790.567,252.293 C 794.035,250.036 798.06,248.475 802.131,247.705 C 805.916,246.986 809.894,247.171 813.706,247.705 C 819.254,248.471 823.046,248.951 829.893,252.293 C 836.478,255.503 839.979,256.932 844.641,255.115 C 846.615,254.347 846.716,251.294 848.399,249.993 C 851.676,247.472 855.823,245.69 859.965,245.409 C 863.138,245.201 866.328,246.387 869.214,247.705 C 871.744,248.851 873.881,250.749 876.034,252.483 C 877.712,253.837 878.859,255.903 880.784,256.883 C 884.286,258.658 888.499,259.933 892.355,259.178 C 897.801,258.106 901.007,251.884 906.23,249.993 C 912.792,247.627 920.913,244.393 927.049,247.705 C 930.081,249.332 929.217,254.489 931.675,256.883 C 932.11,257.299 932.729,257.713 933.325,257.659 C 938.698,257.132 941.826,251.023 946.322,248.071 C 947.221,247.472 948.176,246.97 949.115,246.439 C 949.885,246.007 950.662,245.58 951.429,245.159 C 952.232,244.713 953.033,244.231 953.864,243.827 C 954.606,243.446 955.315,242.87 956.147,242.771 C 964.301,241.857 974.121,242.305 980.255,247.705 C 982.072,249.301 981.285,252.53 982.566,254.588 C 983.14,255.503 983.837,256.883 984.879,256.883 C 995.315,256.827 1010.63,253.842 1024.21,256.883 C 1042.75,261.032 1059.32,265.581 1068.16,268.356 C 1084.45,273.482 1101.16,281.089 1102.09,281.15 C 1106.91,281.433 1111.32,285.223 1115.07,291.344 L 1188,291.344 L 1188,228.602 L 36.014,228.602 Z" stroke="none" stroke-linejoin="miter" marker-start="none" marker-end="none" fill="url(#LinearGradient_1)"/>
    <path d="M 756.58,217.432 L 1188,217.432 L 1188,192.184 L 1125.27,132.344 L 810.88,132.344 L 756.58,189.889 L 756.58,217.432 Z" stroke-width="2.134" stroke="none" stroke-linecap="round" stroke-linejoin="round" marker-start="none" marker-end="none" stroke-miterlimit="79.8403193612775" fill="url(#LinearGradient_2)"/>
    <path d="M 987.391,123.846 L 1030.45,123.959 L 1131.61,123.959 L 1168.71,158.998 C 1173.76,146.748 1176.27,133.239 1175.67,119.146 C 1173.41,67.205 1129.42,26.892 1077.48,29.138 C 1025.54,31.393 985.14,71.907 987.391,123.846 Z" stroke-width="1.911" stroke-linecap="round" stroke="none" stroke-linejoin="round" marker-start="none" marker-end="none" stroke-miterlimit="79.8403193612775" fill="url(#LinearGradient_3)"/>
    <path d="M 951.055,123.846 L 907.998,123.959 L 806.833,123.959 L 769.737,158.998 C 764.688,146.748 762.173,133.239 762.781,119.146 C 765.033,67.205 809.029,26.892 860.965,29.138 C 912.908,31.393 953.306,71.907 951.055,123.846 Z" stroke-width="1.911" stroke-linecap="round" stroke="none" stroke-linejoin="round" marker-start="none" marker-end="none" stroke-miterlimit="79.8403193612775" fill="url(#LinearGradient_4)"/>
    <path d="M 36.005,217.432 L 467.425,217.432 L 467.425,192.184 L 404.698,132.344 L 90.31,132.344 L 36.005,189.889 L 36.005,217.432 Z" stroke-width="2.134" stroke="none" stroke-linecap="round" stroke-linejoin="round" marker-start="none" marker-end="none" stroke-miterlimit="79.8403193612775" fill="url(#LinearGradient_5)"/>
    <path d="M 266.822,123.846 L 309.879,123.959 L 411.044,123.959 L 448.14,158.998 C 453.184,146.748 455.699,133.239 455.095,119.146 C 452.844,67.205 408.85,26.892 356.911,29.138 C 304.965,31.393 264.565,71.907 266.822,123.846 Z" stroke-width="1.911" stroke-linecap="round" stroke="none" stroke-linejoin="round" marker-start="none" marker-end="none" stroke-miterlimit="79.8403193612775" fill="url(#LinearGradient_6)"/>
    <path d="M 230.481,123.846 L 187.427,123.959 L 86.265,123.959 L 49.166,158.998 C 44.118,146.748 41.603,133.239 42.208,119.146 C 44.459,67.205 88.459,26.892 140.394,29.138 C 192.34,31.393 232.736,71.907 230.481,123.846 Z" stroke-width="1.911" stroke-linecap="round" stroke="none" stroke-linejoin="round" marker-start="none" marker-end="none" stroke-miterlimit="79.8403193612775" fill="url(#LinearGradient_7)"/>
   </g>
  </g>
 </g>
</svg>
