<?xml version="1.0" standalone="no"?>
<!DOCTYPE svg PUBLIC "-//W3C//DTD SVG 1.1//EN" "http://www.w3.org/Graphics/SVG/1.1/DTD/svg11.dtd">
<!--Generator: Xara Designer (www.xara.com), SVG filter version: 6.0.0.4-->
<svg stroke-width="0.501" stroke-linejoin="bevel" fill-rule="evenodd" xmlns:xlink="http://www.w3.org/1999/xlink" xmlns="http://www.w3.org/2000/svg" version="1.1" overflow="visible" width="1224pt" height="926.547pt" viewBox="0 0 1224 926.547">
 <defs>
  <linearGradient id="LinearGradient" gradientUnits="userSpaceOnUse" x1="0" y1="0" x2="-199.649" y2="1064.793" gradientTransform="translate(1513.87 -119.423)">
   <stop offset="0" stop-color="#ac4a29"/>
   <stop offset="1" stop-color="#ff4508"/>
  </linearGradient>
  <linearGradient id="LinearGradient_1" gradientUnits="userSpaceOnUse" x1="0" y1="0" x2="-199.649" y2="1064.793" gradientTransform="translate(1513.87 -119.423)">
   <stop offset="0" stop-color="#ac4a29"/>
   <stop offset="1" stop-color="#ff4508"/>
  </linearGradient>
  <linearGradient id="LinearGradient_2" gradientUnits="userSpaceOnUse" x1="0" y1="0" x2="-199.649" y2="1064.793" gradientTransform="translate(1513.87 -119.423)">
   <stop offset="0" stop-color="#ac4a29"/>
   <stop offset="1" stop-color="#ff4508"/>
  </linearGradient>
  <linearGradient id="LinearGradient_3" gradientUnits="userSpaceOnUse" x1="0" y1="0" x2="-199.649" y2="1064.793" gradientTransform="translate(1513.87 -119.423)">
   <stop offset="0" stop-color="#ac4a29"/>
   <stop offset="1" stop-color="#ff4508"/>
  </linearGradient>
  <linearGradient id="LinearGradient_4" gradientUnits="userSpaceOnUse" x1="0" y1="0" x2="-199.649" y2="1064.793" gradientTransform="translate(1513.87 -119.423)">
   <stop offset="0" stop-color="#ac4a29"/>
   <stop offset="1" stop-color="#ff4508"/>
  </linearGradient>
  <linearGradient id="LinearGradient_5" gradientUnits="userSpaceOnUse" x1="0" y1="0" x2="-199.649" y2="1064.793" gradientTransform="translate(1513.87 -119.423)">
   <stop offset="0" stop-color="#ac4a29"/>
   <stop offset="1" stop-color="#ff4508"/>
  </linearGradient>
  <linearGradient id="LinearGradient_6" gradientUnits="userSpaceOnUse" x1="0" y1="0" x2="-199.649" y2="1064.793" gradientTransform="translate(1513.87 -119.423)">
   <stop offset="0" stop-color="#ac4a29"/>
   <stop offset="1" stop-color="#ff4508"/>
  </linearGradient>
  <linearGradient id="LinearGradient_7" gradientUnits="userSpaceOnUse" x1="0" y1="0" x2="-199.649" y2="1064.793" gradientTransform="translate(1513.87 -119.423)">
   <stop offset="0" stop-color="#ac4a29"/>
   <stop offset="1" stop-color="#ff4508"/>
  </linearGradient>
  <linearGradient id="LinearGradient_8" gradientUnits="userSpaceOnUse" x1="0" y1="0" x2="-199.649" y2="1064.793" gradientTransform="translate(1513.87 -119.423)">
   <stop offset="0" stop-color="#ac4a29"/>
   <stop offset="1" stop-color="#ff4508"/>
  </linearGradient>
  <linearGradient id="LinearGradient_9" gradientUnits="userSpaceOnUse" x1="0" y1="0" x2="-199.649" y2="1064.793" gradientTransform="translate(1513.87 -119.423)">
   <stop offset="0" stop-color="#ac4a29"/>
   <stop offset="1" stop-color="#ff4508"/>
  </linearGradient>
  <linearGradient id="LinearGradient_10" gradientUnits="userSpaceOnUse" x1="0" y1="0" x2="-199.649" y2="1064.793" gradientTransform="translate(1513.87 -119.423)">
   <stop offset="0" stop-color="#ac4a29"/>
   <stop offset="1" stop-color="#ff4508"/>
  </linearGradient>
  <linearGradient id="LinearGradient_11" gradientUnits="userSpaceOnUse" x1="0" y1="0" x2="-199.649" y2="1064.793" gradientTransform="translate(1513.87 -104.734)">
   <stop offset="0" stop-color="#ac4a29"/>
   <stop offset="1" stop-color="#ff4508"/>
  </linearGradient>
  <linearGradient id="LinearGradient_12" gradientUnits="userSpaceOnUse" x1="0" y1="0" x2="-199.649" y2="1064.793" gradientTransform="translate(1513.87 -104.734)">
   <stop offset="0" stop-color="#ac4a29"/>
   <stop offset="1" stop-color="#ff4508"/>
  </linearGradient>
  <linearGradient id="LinearGradient_13" gradientUnits="userSpaceOnUse" x1="0" y1="0" x2="-199.649" y2="1064.793" gradientTransform="translate(1513.87 -119.423)">
   <stop offset="0" stop-color="#ac4a29"/>
   <stop offset="1" stop-color="#ff4508"/>
  </linearGradient>
  <linearGradient id="LinearGradient_14" gradientUnits="userSpaceOnUse" x1="0" y1="0" x2="-199.649" y2="1064.793" gradientTransform="translate(1513.87 -119.423)">
   <stop offset="0" stop-color="#ac4a29"/>
   <stop offset="1" stop-color="#ff4508"/>
  </linearGradient>
  <linearGradient id="LinearGradient_15" gradientUnits="userSpaceOnUse" x1="0" y1="0" x2="-199.649" y2="1064.793" gradientTransform="translate(1513.87 -119.423)">
   <stop offset="0" stop-color="#ac4a29"/>
   <stop offset="1" stop-color="#ff4508"/>
  </linearGradient>
 </defs>
 <g id="Document" fill="none" stroke="black" font-family="Times New Roman" font-size="16" transform="scale(1 -1)">
  <g id="Spread" transform="translate(0 -926.547)">
   <g id="Layer 1">
    <path d="M 164.086,289.148 L 164.086,647.042 L 1066.02,647.042 L 1066.02,289.148 L 164.086,289.148 Z M 527.848,391.911 C 554.948,387.389 584.347,384.904 615.053,384.904 C 750.59,384.904 860.604,433.231 860.604,492.758 C 860.604,552.294 750.59,600.617 615.053,600.617 C 479.517,600.617 369.511,552.294 369.511,492.758 C 369.511,461.208 400.416,432.797 449.65,413.062 C 453.269,387.426 442.731,359.399 426.127,330.359 C 458.728,342.36 492.189,359.956 527.848,391.911 Z" stroke-width="2.552" stroke-linecap="round" stroke="none" stroke-linejoin="miter" marker-start="none" marker-end="none" stroke-miterlimit="79.8403193612775" fill="url(#LinearGradient)"/>
    <path d="M 68.588,701.752 C 53.46,698.908 45.766,684.004 42.108,665.038 L 1188,665.038 C 1186.39,681.148 1177.73,694.483 1153.84,701.752 L 68.588,701.752 Z" stroke="none" stroke-width="2.552" stroke-linecap="round" stroke-linejoin="miter" marker-start="none" marker-end="none" stroke-miterlimit="79.8403193612775" fill="url(#LinearGradient_1)"/>
    <path d="M 441.495,715.525 L 441.495,871.563 L 788.619,871.563 L 788.619,715.525 L 441.495,715.525 Z M 697.171,738.469 L 697.171,848.619 L 532.948,848.619 L 532.948,738.469 L 697.171,738.469 Z" stroke-width="2.552" stroke-linecap="round" stroke="none" stroke-linejoin="miter" marker-start="none" marker-end="none" stroke-miterlimit="79.8403193612775" fill="url(#LinearGradient_2)"/>
    <path d="M 418.074,912.871 C 405.904,911.93 394.358,900.325 393.641,880.747 L 836.461,880.747 C 836.208,893.529 835.791,906.239 815.841,912.871 L 418.074,912.871 Z" stroke="none" stroke-width="2.552" stroke-linecap="round" stroke-linejoin="miter" marker-start="none" marker-end="none" stroke-miterlimit="79.8403193612775" fill="url(#LinearGradient_3)"/>
    <path d="M 756.58,202.061 L 1188,202.061 L 1188,176.813 L 1125.27,116.974 L 810.885,116.974 L 756.58,174.518 L 756.58,202.061 Z" stroke-width="2.135" stroke="none" stroke-linecap="round" stroke-linejoin="round" marker-start="none" marker-end="none" stroke-miterlimit="79.8403193612775" fill="url(#LinearGradient_4)"/>
    <path d="M 987.4,108.474 L 1030.45,108.587 L 1131.62,108.587 L 1168.72,143.626 C 1173.76,131.376 1176.28,117.868 1175.67,103.774 C 1173.42,51.832 1129.43,11.52 1077.48,13.764 C 1025.54,16.021 985.143,56.535 987.4,108.474 Z" stroke-width="1.911" stroke-linecap="round" stroke="none" stroke-linejoin="round" marker-start="none" marker-end="none" stroke-miterlimit="79.8403193612775" fill="url(#LinearGradient_5)"/>
    <path d="M 951.057,108.474 L 908.003,108.587 L 806.835,108.587 L 769.737,143.626 C 764.692,131.376 762.174,117.868 762.781,103.774 C 765.034,51.832 809.029,11.52 860.967,13.764 C 912.909,16.021 953.31,56.535 951.057,108.474 Z" stroke-width="1.911" stroke-linecap="round" stroke="none" stroke-linejoin="round" marker-start="none" marker-end="none" stroke-miterlimit="79.8403193612775" fill="url(#LinearGradient_6)"/>
    <path d="M 36,202.061 L 467.422,202.061 L 467.422,176.813 L 404.693,116.974 L 90.301,116.974 L 36,174.518 L 36,202.061 Z" stroke-width="2.135" stroke="none" stroke-linecap="round" stroke-linejoin="round" marker-start="none" marker-end="none" stroke-miterlimit="79.8403193612775" fill="url(#LinearGradient_7)"/>
    <path d="M 266.816,108.474 L 309.874,108.587 L 411.038,108.587 L 448.14,143.626 C 453.181,131.376 455.699,117.868 455.096,103.774 C 452.839,51.832 408.844,11.52 356.906,13.764 C 304.959,16.021 264.563,56.535 266.816,108.474 Z" stroke-width="1.911" stroke-linecap="round" stroke="none" stroke-linejoin="round" marker-start="none" marker-end="none" stroke-miterlimit="79.8403193612775" fill="url(#LinearGradient_8)"/>
    <path d="M 230.477,108.474 L 187.419,108.587 L 86.255,108.587 L 49.158,143.626 C 44.108,131.376 41.594,117.868 42.197,103.774 C 44.454,51.832 88.449,11.52 140.387,13.764 C 192.334,16.021 232.73,56.535 230.477,108.474 Z" stroke-width="1.911" stroke-linecap="round" stroke="none" stroke-linejoin="round" marker-start="none" marker-end="none" stroke-miterlimit="79.8403193612775" fill="url(#LinearGradient_9)"/>
    <path d="M 35.999,276.901 L 35.999,213.223 L 1188,213.223 L 1188,276.901 L 35.999,276.901 Z" stroke="none" stroke-width="2.552" stroke-linecap="round" stroke-linejoin="miter" marker-start="none" marker-end="none" stroke-miterlimit="79.8403193612775" fill="url(#LinearGradient_10)"/>
    <path d="M 36.009,465.191 L 36.009,316.685 C 36.009,307.006 42.689,299.148 50.92,299.148 L 50.925,299.148 C 59.156,299.148 65.836,307.006 65.836,316.685 L 65.836,465.191 C 65.836,474.87 59.156,482.728 50.925,482.728 L 50.92,482.728 C 42.689,482.728 36.009,474.87 36.009,465.191 Z" stroke="none" stroke-width="2.552" stroke-linecap="round" stroke-linejoin="miter" marker-start="none" marker-end="none" stroke-miterlimit="79.8403193612775" fill="url(#LinearGradient_11)"/>
    <path d="M 1158.17,465.245 L 1158.17,316.74 C 1158.17,307.061 1164.85,299.203 1173.09,299.203 L 1173.09,299.203 C 1181.32,299.203 1188,307.061 1188,316.74 L 1188,465.245 C 1188,474.924 1181.32,482.783 1173.09,482.783 L 1173.09,482.783 C 1164.85,482.783 1158.17,474.924 1158.17,465.245 Z" stroke="none" stroke-width="2.552" stroke-linecap="round" stroke-linejoin="miter" marker-start="none" marker-end="none" stroke-miterlimit="79.8403193612775" fill="url(#LinearGradient_12)"/>
    <path d="M 535.505,481.857 C 543.104,491.99 557.5,494.045 567.633,486.447 C 577.766,478.849 579.821,464.453 572.222,454.32 C 564.624,444.187 550.228,442.132 540.095,449.73 C 529.962,457.328 527.907,471.725 535.505,481.857 Z" stroke-linecap="round" stroke-linejoin="miter" stroke="none" stroke-width="2.552" marker-start="none" marker-end="none" stroke-miterlimit="79.8403193612775" fill="url(#LinearGradient_13)"/>
    <path d="M 595.163,481.857 C 602.762,491.99 617.158,494.045 627.291,486.447 C 637.424,478.849 639.479,464.453 631.88,454.32 C 624.282,444.187 609.886,442.132 599.753,449.73 C 589.62,457.328 587.565,471.725 595.163,481.857 Z" stroke-linecap="round" stroke-linejoin="miter" stroke="none" stroke-width="2.552" marker-start="none" marker-end="none" stroke-miterlimit="79.8403193612775" fill="url(#LinearGradient_14)"/>
    <path d="M 657.876,481.857 C 665.474,491.99 679.87,494.045 690.003,486.447 C 700.136,478.849 702.191,464.453 694.593,454.32 C 686.994,444.187 672.598,442.132 662.465,449.73 C 652.332,457.328 650.277,471.725 657.876,481.857 Z" stroke-linecap="round" stroke-linejoin="miter" stroke="none" stroke-width="2.552" marker-start="none" marker-end="none" stroke-miterlimit="79.8403193612775" fill="url(#LinearGradient_15)"/>
   </g>
  </g>
 </g>
</svg>
