<?xml version="1.0" standalone="no"?>
<!DOCTYPE svg PUBLIC "-//W3C//DTD SVG 1.1//EN" "http://www.w3.org/Graphics/SVG/1.1/DTD/svg11.dtd">
<!--Generator: Xara Designer (www.xara.com), SVG filter version: 6.0.0.4-->
<svg stroke-width="0.501" stroke-linejoin="bevel" fill-rule="evenodd" xmlns:xlink="http://www.w3.org/1999/xlink" xmlns="http://www.w3.org/2000/svg" version="1.1" overflow="visible" width="1224pt" height="792pt" viewBox="0 0 1224 792">
 <defs>
	</defs>
 <g id="Document" fill="none" stroke="black" font-family="Times New Roman" font-size="16" transform="scale(1 -1)">
  <g id="Spread" transform="translate(0 -792)">
   <g id="shoe template"/>
   <g id="hand template"/>
   <g id="Engine">
    <path d="M 78.225,628.75 L 121.744,628.75 C 117.913,625.658 113.956,622.894 110.866,617.872 L 110.866,574.352 C 104.031,566.028 96.808,566.311 89.105,574.352 L 89.105,617.872 C 85.956,622.104 82.226,625.6 78.225,628.75 L 78.225,628.75 Z" fill="#000000" stroke="none" stroke-linejoin="miter" marker-start="none" marker-end="none"/>
    <path d="M 82.578,573.809 C 65.538,564.063 64.396,515.955 67.346,510.162 L 239.245,512.338 L 239.245,571.446 L 175.599,572.72 C 166.256,565.435 155.747,562.16 142.96,573.809 L 114.673,574.352 C 105.867,566.577 96.904,562.849 87.474,573.809 L 82.578,573.809 Z" fill="#000000" stroke="none" stroke-linejoin="miter" marker-start="none" marker-end="none"/>
    <path d="M 170.704,572.529 C 163.405,567.012 155.648,565.342 146.768,573.073 L 146.768,580.689 L 170.704,580.689 L 170.704,572.529 Z" fill="#000000" stroke="none" stroke-linejoin="miter" marker-start="none" marker-end="none"/>
    <path d="M 146.768,582.511 L 170.704,582.511 L 170.704,592.847 L 146.768,592.847 L 146.768,582.511 Z" fill="#000000" stroke="none" stroke-linejoin="miter" marker-start="none" marker-end="none"/>
    <path d="M 146.768,594.782 L 170.704,594.782 C 169.983,603.709 166.384,610.237 157.883,610.915 C 152.009,610.051 146.99,605.645 146.768,594.782 Z" stroke="none" fill="#000000" stroke-linejoin="round" stroke-linecap="round" stroke-width="0.605" marker-start="none" marker-end="none" stroke-miterlimit="79.8403193612775"/>
    <path d="M 64.627,542.801 L 63.538,510.162 C 58.043,512.071 56.209,518.275 57.01,527.57 C 57.729,539.4 60.723,542.785 64.627,542.801 Z" fill="#000000" stroke="none" stroke-linejoin="miter" marker-start="none" marker-end="none"/>
    <path d="M 238.702,503.633 L 68.434,502.546 C 69.692,495.009 72.295,489.483 77.138,487.315 L 238.702,489.49 L 238.702,503.633 Z" fill="#000000" stroke="none" stroke-linejoin="round" stroke-linecap="round" stroke-width="0.605" marker-start="none" marker-end="none" stroke-miterlimit="79.8403193612775"/>
    <path d="M 81.248,480.243 L 81.248,453.587 L 154.384,453.587 L 154.384,480.243 L 81.248,480.243 Z" fill="#000000" stroke="none" stroke-linejoin="round" stroke-linecap="round" stroke-width="0.605" marker-start="none" marker-end="none" stroke-miterlimit="79.8403193612775"/>
    <path d="M 236.525,587.409 L 330.588,587.409 C 326.948,593.425 322.67,599.307 316.492,604.816 L 239.245,604.816 C 237.29,601.13 235.823,595.665 236.525,587.409 Z" stroke="none" fill="#000000" stroke-linejoin="round" stroke-linecap="round" stroke-width="0.605" marker-start="none" marker-end="none" stroke-miterlimit="79.8403193612775"/>
    <path d="M 241.422,488.402 L 241.422,584.144 L 330.636,584.144 L 330.636,580.88 C 330.249,580.416 329.657,580.085 329.003,579.793 L 317.58,575.44 C 314.884,573.627 312.595,570.503 310.507,566.736 C 307.64,554.82 307.074,542.307 306.7,529.746 L 308.876,488.402 L 241.422,488.402 Z M 294.732,524.305 L 294.732,546.065 L 250.125,546.141 L 250.125,524.305 L 294.732,524.305 Z M 294.732,549.328 L 294.732,570 L 250.125,570 L 250.125,549.328 L 294.732,549.328 Z" stroke="none" fill="#000000" stroke-linejoin="round" stroke-width="0.605" stroke-linecap="round" marker-start="none" marker-end="none" stroke-miterlimit="79.8403193612775"/>
    <path d="M 150.007,425.843 C 144.302,419.538 134.553,419.051 128.247,424.755 C 121.942,430.46 121.455,440.209 127.159,446.515 C 132.864,452.82 142.613,453.307 148.919,447.603 C 155.224,441.898 155.711,432.149 150.007,425.843 Z" fill="#000000" stroke="none" stroke-width="0.605" stroke-linecap="round" stroke-linejoin="round" marker-start="none" marker-end="none" stroke-miterlimit="79.8403193612775"/>
    <path d="M 218.032,430.029 C 206.23,417.716 186.656,417.303 174.344,429.105 C 162.031,440.907 161.618,460.481 173.42,472.793 C 185.222,485.106 204.796,485.519 217.108,473.717 C 229.421,461.915 229.834,442.341 218.032,430.029 Z" fill="#000000" stroke="none" stroke-width="0.605" stroke-linecap="round" stroke-linejoin="round" marker-start="none" marker-end="none" stroke-miterlimit="79.8403193612775"/>
    <path d="M 117.912,425.299 C 112.207,418.994 102.458,418.507 96.152,424.211 C 89.847,429.916 89.36,439.665 95.064,445.971 C 100.769,452.276 110.518,452.763 116.824,447.059 C 123.129,441.354 123.616,431.605 117.912,425.299 Z" fill="#000000" stroke="none" stroke-width="0.605" stroke-linecap="round" stroke-linejoin="round" marker-start="none" marker-end="none" stroke-miterlimit="79.8403193612775"/>
    <path d="M 284.942,430.573 C 273.14,418.26 253.566,417.847 241.254,429.649 C 228.941,441.451 228.528,461.025 240.33,473.337 C 252.132,485.65 271.706,486.063 284.018,474.261 C 296.331,462.459 296.744,442.885 284.942,430.573 Z" fill="#000000" stroke="none" stroke-width="0.605" stroke-linecap="round" stroke-linejoin="round" marker-start="none" marker-end="none" stroke-miterlimit="79.8403193612775"/>
    <path d="M 85.885,426.58 L 85.976,448.74 L 81.784,448.74 L 79.491,426.58 L 85.885,426.58 Z" fill="#000000" stroke="none" stroke-linejoin="round" stroke-linecap="round" stroke-width="0.849" marker-start="none" marker-end="none" stroke-miterlimit="79.8403193612775"/>
    <path d="M 76.436,426.58 L 68.794,426.58 L 75.672,453.326 L 78.728,462.497 L 76.436,426.58 Z" fill="#000000" stroke="none" stroke-linejoin="round" stroke-linecap="round" stroke-width="0.849" marker-start="none" marker-end="none" stroke-miterlimit="79.8403193612775"/>
    <path d="M 64.972,426.58 L 56.567,426.58 L 65.737,447.213 L 78.269,467.844 L 64.972,426.58 Z" fill="#000000" stroke="none" stroke-linejoin="round" stroke-linecap="round" stroke-width="0.849" marker-start="none" marker-end="none" stroke-miterlimit="79.8403193612775"/>
    <path d="M 51.982,426.58 L 45.104,426.58 L 56.567,447.977 L 78.269,471.666 L 61.916,446.449 L 51.982,426.58 Z" fill="#000000" stroke="none" stroke-linejoin="round" stroke-linecap="round" stroke-width="0.849" marker-start="none" marker-end="none" stroke-miterlimit="79.8403193612775"/>
    <path d="M 42.353,426.58 L 35.17,426.58 L 52.287,453.326 L 78.269,473.959 L 54.58,449.505 L 42.353,426.58 Z" fill="#000000" stroke="none" stroke-linejoin="round" stroke-linecap="round" stroke-width="0.849" marker-start="none" marker-end="none" stroke-miterlimit="79.8403193612775"/>
    <path d="M 31.656,426.58 L 23.707,426.58 L 46.633,455.618 L 69.865,472.429 L 78.269,477.974 L 78.269,476.251 L 50.454,454.854 L 31.656,426.58 Z" fill="#000000" stroke="none" stroke-linejoin="round" stroke-linecap="round" stroke-width="0.849" marker-start="none" marker-end="none" stroke-miterlimit="79.8403193612775"/>
    <path d="M 78.225,628 L 78.225,631.809 L 121.746,631.894 L 121.744,628 L 100.394,628 L 78.225,628 Z" stroke="none" fill="#000000" stroke-linejoin="round" stroke-linecap="round" stroke-width="0.849" marker-start="none" marker-end="none" stroke-miterlimit="79.8403193612775"/>
   </g>
   <g id="Hand Car">
    <path d="M 727.056,487.463 C 715.07,495.867 711.558,511.198 706.761,520.157 L 706.605,520.487 L 706.405,520.958 L 706.296,521.244 C 705.031,524.97 705.94,532.139 707.256,539.506 C 708.668,547.412 710.906,557.021 713.392,566.472 C 716.854,579.642 721.26,594.248 724.584,602.509 L 725.88,605.466 L 725.779,606.191 C 725.875,607.778 726.9,609.231 728.492,609.795 C 731.574,610.883 734.719,611.391 737.49,610.334 C 738.881,609.805 740.024,608.933 740.893,607.815 C 743.417,604.564 743.213,599.695 742.804,595.969 C 742.351,591.853 741.305,586.943 740.482,582.49 C 738.721,572.982 738.54,567.668 740.079,565.21 C 740.049,564.865 740.147,564.476 740.385,564.144 C 745.59,556.81 748.265,550.983 748.77,545.05 C 749.274,539.116 747.626,532.818 743.639,524.497 C 743.233,523.652 743.591,522.636 744.437,522.229 C 745.283,521.825 746.298,522.183 746.705,523.03 C 750.803,531.582 752.736,538.528 752.158,545.338 C 751.605,551.849 748.776,558.002 743.852,565.12 L 746.47,565.105 C 749.24,565.168 751.317,565.399 752.524,565.824 C 763.496,569.687 771.206,581.681 779.23,594.953 C 786.124,606.359 794.693,621.603 807.044,624.005 C 808.161,624.223 809.321,623.962 810.24,623.288 C 811.97,622.015 813.619,620.698 814.633,619.133 C 815.56,617.701 815.899,616.19 815.77,614.619 C 815.62,612.779 814.544,610.147 813.983,608.357 C 812.306,602.991 804.594,592.928 798.312,584.186 C 795.504,577.018 785.941,569.351 788.117,566.087 C 792.402,563.952 803.053,576.46 812.555,583.227 C 822.022,590.272 837.228,603.667 846.311,597.854 C 846.814,597.535 847.24,597.107 847.592,596.551 C 849.168,594.018 850.383,588.673 848.714,584.834 C 848.226,583.708 847.395,582.506 846.043,581.663 C 841.226,578.661 828.804,568.12 818.038,560.103 C 810.977,553.758 797.626,545.571 800.63,543.24 C 805.268,542.144 815.792,545.832 827.281,550.635 C 835.807,553.589 849.472,558.711 855.13,557.849 C 855.737,557.756 856.318,557.528 856.825,557.178 C 864.393,551.979 862.965,543.271 855.683,538.97 C 844.458,532.338 827.225,528.985 814.897,525.865 C 808.717,523.57 804.972,521.269 805.526,518.217 C 810.575,515.891 816.56,517.421 822.4,518.349 C 830.199,521.074 850.291,520.479 850.677,515.497 C 850.701,511.82 850.757,509.697 845.78,506.793 C 837.563,501.997 828.744,502.227 818.408,500.052 C 809.59,499.48 801.162,496.987 798.07,496.517 L 797.117,496.301 C 780.708,485.833 750.27,471.186 727.056,487.463 Z M 797.329,496.433 L 797.102,496.297 L 797.329,496.433 Z" fill="#000000" stroke="none" stroke-linejoin="miter" marker-start="none" marker-end="none"/>
    <path d="M 799.007,465.822 L 901.276,465.822 L 901.276,459.837 L 886.407,445.652 L 811.881,445.652 L 799.007,459.293 L 799.007,465.822 Z" fill="#000000" stroke-width="0.506" stroke="none" stroke-linecap="round" stroke-linejoin="round" marker-start="none" marker-end="none" stroke-miterlimit="79.8403193612775"/>
    <path d="M 628.194,468.47 L 628.194,483.564 L 725.81,483.564 C 726.215,483.248 726.63,482.939 727.056,482.642 C 744.591,470.347 766.247,475.697 782.87,483.564 L 901.275,483.564 L 901.275,468.47 L 628.194,468.47 Z" fill="#000000" stroke="none" stroke-linejoin="miter" marker-start="none" marker-end="none"/>
    <path d="M 853.723,443.637 L 863.929,443.664 L 887.911,443.664 L 896.705,451.97 C 897.9,449.066 898.498,445.864 898.354,442.523 C 897.819,430.21 887.391,420.654 875.079,421.186 C 862.764,421.721 853.188,431.325 853.723,443.637 Z" fill="#000000" stroke-width="0.453" stroke-linecap="round" stroke="none" stroke-linejoin="round" marker-start="none" marker-end="none" stroke-miterlimit="79.8403193612775"/>
    <path d="M 845.108,443.637 L 834.902,443.664 L 810.921,443.664 L 802.126,451.97 C 800.931,449.066 800.333,445.864 800.478,442.523 C 801.011,430.21 811.44,420.654 823.752,421.186 C 836.066,421.721 845.643,431.325 845.108,443.637 Z" fill="#000000" stroke-width="0.453" stroke-linecap="round" stroke="none" stroke-linejoin="round" marker-start="none" marker-end="none" stroke-miterlimit="79.8403193612775"/>
    <path d="M 628.194,465.822 L 730.463,465.822 L 730.463,459.837 L 715.592,445.652 L 641.067,445.652 L 628.194,459.293 L 628.194,465.822 Z" fill="#000000" stroke-width="0.506" stroke="none" stroke-linecap="round" stroke-linejoin="round" marker-start="none" marker-end="none" stroke-miterlimit="79.8403193612775"/>
    <path d="M 682.909,443.637 L 693.115,443.664 L 717.096,443.664 L 725.891,451.97 C 727.086,449.066 727.684,445.864 727.54,442.523 C 727.005,430.21 716.577,420.654 704.264,421.186 C 691.951,421.721 682.374,431.325 682.909,443.637 Z" fill="#000000" stroke-width="0.453" stroke-linecap="round" stroke="none" stroke-linejoin="round" marker-start="none" marker-end="none" stroke-miterlimit="79.8403193612775"/>
    <path d="M 674.294,443.637 L 664.088,443.664 L 640.107,443.664 L 631.312,451.97 C 630.116,449.066 629.519,445.864 629.664,442.523 C 630.198,430.21 640.627,420.654 652.939,421.186 C 665.252,421.721 674.828,431.325 674.294,443.637 Z" fill="#000000" stroke-width="0.453" stroke-linecap="round" stroke="none" stroke-linejoin="round" marker-start="none" marker-end="none" stroke-miterlimit="79.8403193612775"/>
   </g>
   <g id="Shoe Car">
    <path d="M 416.541,475.164 C 415.493,475.413 414.493,475.912 413.611,476.53 C 413.099,476.89 412.686,477.383 412.284,477.863 C 411.994,478.21 411.717,478.575 411.504,478.973 C 411.423,479.119 411.399,479.297 411.318,479.443 C 410.876,480.252 410.591,481.483 409.692,481.685 C 409.061,481.826 408.587,480.995 407.988,480.753 C 407.384,480.509 406.748,480.328 406.105,480.228 C 406.044,480.22 405.977,480.238 405.918,480.221 C 405.627,480.136 405.403,479.891 405.129,479.761 C 404.663,479.543 404.167,479.388 403.678,479.228 C 403.455,479.156 403.228,479.07 402.996,479.031 C 401.582,478.79 400.123,478.631 398.697,478.791 C 397.844,478.888 396.979,479.109 396.215,479.506 C 396.038,479.599 395.93,479.806 395.746,479.886 C 395.602,479.948 395.419,479.886 395.279,479.957 C 394.252,480.484 393.52,481.492 392.858,482.437 C 392.612,482.788 392.713,483.488 392.299,483.599 C 391.794,483.734 391.486,482.914 391.003,482.719 C 390.469,482.502 389.872,482.468 389.298,482.419 C 389.016,482.394 388.729,482.382 388.45,482.418 C 387.504,482.539 386.554,482.761 385.683,483.146 C 385.337,483.298 385.027,483.53 384.729,483.763 C 384.119,484.237 383.561,484.783 383.029,485.346 C 382.809,485.579 382.585,485.818 382.409,486.09 C 382.261,486.32 382.203,486.606 382.044,486.83 C 381.94,486.979 381.76,487.073 381.659,487.226 C 381.279,487.807 381.002,488.475 380.875,489.156 C 380.835,489.379 380.938,489.619 380.886,489.838 C 380.85,489.993 380.753,490.131 380.664,490.262 C 380.587,490.375 380.512,490.509 380.391,490.576 C 380.014,490.785 379.491,490.992 379.117,490.782 C 378.925,490.674 378.997,490.346 378.867,490.167 C 378.113,489.128 377.113,488.146 375.913,487.686 C 375.144,487.393 374.23,487.367 373.442,487.605 C 372.033,488.032 370.8,489.05 369.846,490.17 C 369.143,490.997 368.769,492.07 368.404,493.092 C 368.257,493.501 368.27,493.963 368.106,494.367 C 368.005,494.618 367.949,494.986 367.69,495.064 C 367.581,495.095 367.487,494.946 367.377,494.912 C 366.074,494.501 364.682,494.075 363.327,494.251 C 361.574,494.481 359.859,495.311 358.484,496.422 C 354.146,499.93 351.044,504.911 348.594,509.922 C 348.403,510.315 348.338,510.76 348.236,511.184 C 347.673,513.492 347.029,515.814 346.819,518.169 C 346.424,522.554 346.701,527.011 347.302,531.375 C 347.389,532.01 347.525,532.649 347.757,533.248 C 347.883,533.575 348.075,533.878 348.264,534.173 C 348.712,534.877 349.111,535.652 349.746,536.191 C 351.237,537.454 353.124,538.225 354.978,538.841 C 363.372,541.631 371.936,542.814 381.12,543.418 C 390.553,544.04 400.602,545.198 404.822,546.512 L 402.571,533.675 L 402.555,533.586 L 402.554,533.579 L 402.516,533.362 C 402.398,532.408 402.673,531.409 403.36,530.636 C 404.63,529.192 406.834,529.052 408.277,530.324 C 408.893,530.868 409.272,531.582 409.403,532.336 L 409.406,532.336 L 412.076,547.56 C 414.368,547.992 417.076,548.6 420.01,549.463 L 418.559,541.188 L 418.544,541.1 L 418.542,541.091 L 418.504,540.874 C 418.387,539.92 418.662,538.923 419.348,538.148 C 420.619,536.706 422.823,536.566 424.265,537.838 C 424.879,538.381 425.26,539.095 425.391,539.848 L 425.394,539.848 L 427.545,552.116 C 428.745,552.615 429.957,553.161 431.166,553.755 C 432.616,554.465 434.055,555.217 435.465,555.996 L 433.967,547.454 L 433.951,547.367 L 433.951,547.358 L 433.912,547.14 C 433.795,546.187 434.069,545.19 434.757,544.415 C 436.028,542.972 438.23,542.833 439.674,544.105 C 440.289,544.648 440.668,545.362 440.799,546.115 L 440.802,546.115 L 443.373,560.779 C 446.297,562.699 448.96,564.616 451.213,566.359 L 449.199,554.875 L 449.143,554.56 C 449.026,553.607 449.301,552.61 449.988,551.835 C 451.259,550.392 453.463,550.252 454.905,551.524 C 455.521,552.068 455.9,552.781 456.031,553.535 L 456.033,553.535 L 459.887,575.51 C 464.743,582.546 479.465,592.941 480.639,593.783 C 481.944,594.72 490.832,596.949 496.478,592.263 C 501.365,588.208 495.744,570.56 493.15,568.76 C 489.622,566.31 496.949,562.151 501.31,559.512 C 502.847,558.582 518.405,549.308 526.878,548.088 C 527.437,548.008 531.935,546.828 535.582,547.545 C 539.096,548.234 541.776,550.801 541.781,551.659 C 541.781,551.749 545.773,561.713 551.357,568.215 C 555.315,572.826 558.258,574.477 562.578,574.75 C 566.552,575 570.299,572.348 573.572,570.083 C 574.019,569.774 574.406,569.357 574.699,568.9 C 577.363,564.75 578.834,561.014 580.188,555.161 C 581.079,551.311 582.159,536.585 583.768,527.393 C 584.694,522.095 584.41,519.007 587.26,511.642 C 590.735,502.661 587.661,486.682 582.729,486.388 C 582.512,486.374 578.581,484.57 574.749,483.354 C 572.67,482.695 568.774,481.618 564.412,480.635 C 561.219,479.914 557.619,480.622 555.165,480.635 C 554.919,480.636 554.756,480.308 554.621,480.09 C 554.32,479.604 554.505,478.838 554.076,478.459 C 552.635,477.178 550.324,477.073 548.409,477.291 C 548.213,477.313 548.046,477.448 547.871,477.537 C 547.677,477.636 547.488,477.75 547.298,477.855 C 547.117,477.955 546.935,478.056 546.755,478.159 C 546.535,478.283 546.309,478.404 546.097,478.544 C 545.04,479.245 544.304,480.694 543.041,480.818 C 542.899,480.832 542.755,480.733 542.653,480.635 C 542.074,480.067 542.277,478.846 541.565,478.459 C 540.123,477.674 538.212,478.442 536.669,479.002 C 535.441,479.449 534.688,480.926 533.405,481.179 C 532.499,481.357 531.508,481.056 530.685,480.635 C 530.234,480.402 529.962,479.913 529.568,479.592 C 529.062,479.18 528.561,478.73 527.966,478.459 C 527.286,478.147 526.535,477.864 525.789,477.914 C 524.816,477.979 523.84,478.404 523.07,479.002 C 522.674,479.309 522.649,480.034 522.185,480.216 C 521.089,480.646 520.266,480.308 518.718,479.546 C 517.108,478.755 516.217,478.641 514.911,478.459 C 514.013,478.333 513.079,478.287 512.19,478.459 C 511.231,478.642 510.285,479.009 509.471,479.546 C 509.042,479.828 508.886,480.664 508.382,480.635 C 507.841,480.603 506.894,480.772 506.206,480.635 C 505.748,480.543 505.068,479.963 504.574,479.546 C 503.45,478.595 502.165,478.187 500.222,478.459 C 499.664,478.535 498.668,478.419 498.59,478.459 C 497.979,478.765 496.027,479.594 495.326,480.635 C 494.941,481.207 495.146,481.544 494.783,481.722 C 493.952,482.128 492.937,481.478 492.063,481.179 C 491.296,480.916 490.969,480.432 489.886,480.09 C 487.769,479.423 486.977,479.044 483.903,479.546 C 482.51,479.773 482.248,481.115 479.007,481.179 C 478.87,481.181 478.243,480.8 477.919,480.09 C 477.673,479.548 477.816,478.823 477.374,478.459 C 476.34,477.6 474.719,477.967 473.376,477.913 C 472.531,477.879 471.509,477.574 470.841,478.049 C 469.808,478.784 468.835,479.896 467.039,480.09 C 465.831,480.221 464.814,477.914 463.863,477.548 C 461.84,476.77 457.64,478.243 456.868,478.751 C 456.441,479.031 455.616,478.797 454.527,478.459 C 453.759,478.217 454.043,476.899 453.44,476.826 C 452.566,476.722 451.674,476.681 450.79,476.661 C 449.062,476.619 447.289,476.362 445.6,476.737 C 445.099,476.848 444.579,476.907 444.191,477.371 C 443.641,478.033 443.881,478.818 443.331,479.214 C 442.528,479.791 441.217,480.078 440.384,479.546 C 439.901,479.237 440.187,478.369 439.84,477.914 C 439.443,477.396 438.827,477.035 438.209,476.826 C 436.911,476.388 435.474,476.526 434.106,476.565 C 432.777,476.603 431.397,476.609 430.141,477.046 C 429.583,477.241 429.108,477.632 428.627,477.975 C 428.298,478.212 428.095,478.705 427.693,478.753 C 427.575,478.768 427.479,478.644 427.369,478.596 C 427.169,478.509 426.947,478.469 426.758,478.358 C 426.701,478.324 426.655,478.268 426.603,478.226 C 425.746,477.531 425.004,476.621 423.989,476.189 C 421.781,475.247 419.256,475.29 416.859,475.154 C 416.754,475.149 416.644,475.14 416.541,475.164 Z M 402.516,533.362 L 402.555,533.586 L 402.571,533.686 C 402.546,533.579 402.528,533.469 402.516,533.362 Z M 418.504,540.874 L 418.544,541.1 L 418.559,541.199 C 418.535,541.091 418.516,540.983 418.504,540.874 Z M 433.912,547.14 L 433.951,547.367 L 433.967,547.466 C 433.943,547.358 433.925,547.249 433.912,547.14 Z M 449.183,554.779 L 449.143,554.56 C 449.157,554.669 449.175,554.779 449.199,554.886 L 449.183,554.779 Z" fill="#000000" stroke="none" stroke-linejoin="miter" marker-start="none" marker-end="none"/>
    <path d="M 330.939,468.47 L 330.939,483.343 L 370.471,483.343 C 371.14,482.813 371.885,482.384 372.687,482.145 C 373.482,481.908 374.403,481.932 375.179,482.227 C 375.826,482.472 376.416,482.868 376.942,483.343 L 380.259,483.343 C 380.407,482.785 380.653,482.245 380.97,481.766 C 381.071,481.611 381.253,481.519 381.359,481.369 C 381.518,481.146 381.576,480.861 381.726,480.63 C 381.902,480.358 382.129,480.121 382.351,479.884 C 382.888,479.322 383.45,478.778 384.066,478.302 C 384.367,478.07 384.679,477.837 385.026,477.686 C 385.906,477.302 386.862,477.078 387.815,476.957 C 388.097,476.923 388.386,476.934 388.669,476.958 C 389.249,477.008 389.851,477.041 390.389,477.258 C 390.877,477.453 391.187,478.272 391.694,478.14 C 392.112,478.028 392.01,477.327 392.259,476.976 C 392.927,476.031 393.664,475.024 394.7,474.498 C 394.84,474.425 395.026,474.488 395.17,474.425 C 395.355,474.344 395.465,474.137 395.644,474.045 C 396.413,473.65 397.284,473.428 398.146,473.332 C 399.582,473.17 401.053,473.331 402.479,473.57 C 402.713,473.61 402.941,473.695 403.167,473.768 C 403.659,473.928 404.159,474.082 404.628,474.301 C 404.905,474.43 405.132,474.676 405.425,474.761 C 405.484,474.777 405.551,474.759 405.613,474.767 C 406.262,474.868 406.903,475.048 407.51,475.292 C 408.115,475.535 408.592,476.366 409.228,476.225 C 410.136,476.023 410.421,474.792 410.868,473.984 C 410.949,473.836 410.974,473.66 411.055,473.51 C 411.269,473.115 411.549,472.747 411.841,472.403 C 412.247,471.923 412.663,471.43 413.181,471.068 C 414.069,470.45 415.076,469.953 416.132,469.703 C 416.237,469.68 416.348,469.69 416.453,469.695 C 418.869,469.829 421.415,469.788 423.641,470.729 C 424.664,471.161 425.411,472.071 426.275,472.766 C 426.328,472.808 426.374,472.863 426.433,472.898 C 426.621,473.009 426.848,473.048 427.048,473.136 C 427.158,473.184 427.256,473.307 427.374,473.293 C 427.78,473.243 427.984,472.751 428.316,472.516 C 428.801,472.171 429.279,471.781 429.843,471.586 C 431.109,471.148 432.498,471.142 433.839,471.105 C 435.218,471.065 436.666,470.929 437.973,471.367 C 438.598,471.575 439.22,471.935 439.619,472.454 C 439.968,472.91 439.682,473.778 440.168,474.086 C 441.007,474.616 442.329,474.329 443.137,473.753 C 443.693,473.36 443.45,472.574 444.006,471.909 C 444.396,471.445 444.92,471.387 445.426,471.276 C 447.128,470.9 448.913,471.16 450.657,471.2 C 451.548,471.221 452.447,471.262 453.329,471.367 C 453.936,471.439 453.65,472.757 454.425,472.998 C 455.522,473.338 456.354,473.57 456.784,473.289 C 457.563,472.783 461.795,471.309 463.834,472.087 C 464.793,472.454 465.819,474.761 467.036,474.63 C 468.848,474.434 469.827,473.323 470.869,472.587 C 471.542,472.112 472.572,472.419 473.424,472.453 C 474.778,472.508 476.413,472.14 477.456,472.998 C 477.9,473.362 477.756,474.087 478.003,474.63 C 478.331,475.34 478.963,475.721 479.101,475.718 C 482.368,475.656 482.632,474.312 484.036,474.086 C 487.135,473.583 487.933,473.963 490.069,474.63 C 491.159,474.97 491.488,475.455 492.262,475.718 C 493.141,476.018 494.165,476.668 495.003,476.262 C 495.371,476.084 495.164,475.748 495.551,475.174 C 496.257,474.132 498.226,473.303 498.842,472.998 C 498.919,472.959 499.923,473.075 500.487,472.998 C 502.446,472.727 503.74,473.135 504.875,474.086 C 505.371,474.505 506.057,475.082 506.519,475.174 C 507.211,475.313 508.167,475.142 508.713,475.174 C 509.22,475.203 509.377,474.368 509.809,474.086 C 510.631,473.551 511.585,473.181 512.55,472.998 C 513.447,472.828 514.39,472.872 515.294,472.998 C 516.609,473.18 517.508,473.294 519.131,474.086 C 520.692,474.847 521.522,475.186 522.627,474.755 C 523.095,474.573 523.119,473.849 523.518,473.541 C 524.295,472.943 525.278,472.521 526.26,472.454 C 527.012,472.405 527.768,472.686 528.452,472.998 C 529.052,473.27 529.559,473.72 530.069,474.131 C 530.467,474.452 530.739,474.942 531.195,475.174 C 532.025,475.595 533.024,475.897 533.938,475.718 C 535.229,475.464 535.989,473.989 537.227,473.541 C 538.783,472.98 540.708,472.213 542.162,472.998 C 542.881,473.384 542.676,474.607 543.259,475.174 C 543.362,475.273 543.509,475.371 543.65,475.358 C 544.924,475.233 545.665,473.785 546.731,473.085 C 546.944,472.943 547.171,472.824 547.393,472.698 C 547.576,472.596 547.76,472.495 547.942,472.395 C 548.132,472.289 548.322,472.175 548.519,472.079 C 548.695,471.989 548.863,471.852 549.06,471.829 C 550.993,471.612 553.321,471.718 554.775,472.998 C 555.206,473.377 555.019,474.142 555.323,474.63 C 555.459,474.847 555.624,475.174 555.871,475.174 C 558.345,475.161 561.975,474.453 565.194,475.174 C 569.59,476.158 573.518,477.236 575.613,477.894 C 579.476,479.109 583.437,480.912 583.657,480.927 C 584.799,480.994 585.844,481.892 586.732,483.343 L 604.021,483.343 L 604.021,468.47 L 330.939,468.47 Z" fill="#000000" stroke="none" stroke-linejoin="miter" marker-start="none" marker-end="none"/>
    <path d="M 501.752,465.822 L 604.021,465.822 L 604.021,459.837 L 589.151,445.652 L 514.624,445.652 L 501.752,459.293 L 501.752,465.822 Z" fill="#000000" stroke-width="0.506" stroke="none" stroke-linecap="round" stroke-linejoin="round" marker-start="none" marker-end="none" stroke-miterlimit="79.8403193612775"/>
    <path d="M 556.467,443.637 L 566.674,443.664 L 590.654,443.664 L 599.45,451.97 C 600.645,449.066 601.242,445.864 601.098,442.523 C 600.564,430.21 590.135,420.654 577.822,421.186 C 565.509,421.721 555.933,431.325 556.467,443.637 Z" fill="#000000" stroke-width="0.453" stroke-linecap="round" stroke="none" stroke-linejoin="round" marker-start="none" marker-end="none" stroke-miterlimit="79.8403193612775"/>
    <path d="M 547.853,443.637 L 537.646,443.664 L 513.665,443.664 L 504.871,451.97 C 503.674,449.066 503.078,445.864 503.222,442.523 C 503.756,430.21 514.185,420.654 526.497,421.186 C 538.81,421.721 548.387,431.325 547.853,443.637 Z" fill="#000000" stroke-width="0.453" stroke-linecap="round" stroke="none" stroke-linejoin="round" marker-start="none" marker-end="none" stroke-miterlimit="79.8403193612775"/>
    <path d="M 330.937,465.822 L 433.207,465.822 L 433.207,459.837 L 418.337,445.652 L 343.81,445.652 L 330.937,459.293 L 330.937,465.822 Z" fill="#000000" stroke-width="0.506" stroke="none" stroke-linecap="round" stroke-linejoin="round" marker-start="none" marker-end="none" stroke-miterlimit="79.8403193612775"/>
    <path d="M 385.653,443.637 L 395.86,443.664 L 419.841,443.664 L 428.635,451.97 C 429.831,449.066 430.427,445.864 430.284,442.523 C 429.75,430.21 419.321,420.654 407.009,421.186 C 394.695,421.721 385.118,431.325 385.653,443.637 Z" fill="#000000" stroke-width="0.453" stroke-linecap="round" stroke="none" stroke-linejoin="round" marker-start="none" marker-end="none" stroke-miterlimit="79.8403193612775"/>
    <path d="M 377.038,443.637 L 366.832,443.664 L 342.851,443.664 L 334.057,451.97 C 332.86,449.066 332.264,445.864 332.407,442.523 C 332.941,430.21 343.371,420.654 355.683,421.186 C 367.997,421.721 377.573,431.325 377.038,443.637 Z" fill="#000000" stroke-width="0.453" stroke-linecap="round" stroke="none" stroke-linejoin="round" marker-start="none" marker-end="none" stroke-miterlimit="79.8403193612775"/>
   </g>
   <g id="Caboose">
    <path d="M 957.749,486.466 L 957.749,571.305 L 1171.55,571.305 L 1171.55,486.466 L 957.749,486.466 Z M 1043.98,510.826 C 1050.4,509.754 1057.37,509.165 1064.65,509.165 C 1096.78,509.165 1122.86,520.621 1122.86,534.732 C 1122.86,548.845 1096.78,560.3 1064.65,560.3 C 1032.52,560.3 1006.45,548.845 1006.45,534.732 C 1006.45,527.253 1013.77,520.518 1025.44,515.84 C 1026.3,509.763 1023.8,503.119 1019.87,496.235 C 1027.59,499.08 1035.53,503.251 1043.98,510.826 Z" fill="#000000" stroke-width="0.605" stroke-linecap="round" stroke="none" stroke-linejoin="miter" marker-start="none" marker-end="none" stroke-miterlimit="79.8403193612775"/>
    <path d="M 935.111,584.274 C 931.525,583.6 929.701,580.067 928.834,575.571 L 1200.47,575.571 C 1200.09,579.39 1198.03,582.551 1192.37,584.274 L 935.111,584.274 Z" fill="#000000" stroke="none" stroke-width="0.605" stroke-linecap="round" stroke-linejoin="miter" marker-start="none" marker-end="none" stroke-miterlimit="79.8403193612775"/>
    <path d="M 1023.51,587.539 L 1023.51,624.528 L 1105.8,624.528 L 1105.8,587.539 L 1023.51,587.539 Z M 1084.12,592.978 L 1084.12,619.089 L 1045.19,619.089 L 1045.19,592.978 L 1084.12,592.978 Z" fill="#000000" stroke-width="0.605" stroke-linecap="round" stroke="none" stroke-linejoin="miter" marker-start="none" marker-end="none" stroke-miterlimit="79.8403193612775"/>
    <path d="M 1017.96,634.32 C 1015.07,634.097 1012.34,631.346 1012.17,626.705 L 1117.14,626.705 C 1117.08,629.735 1116.98,632.748 1112.25,634.32 L 1017.96,634.32 Z" fill="#000000" stroke="none" stroke-width="0.605" stroke-linecap="round" stroke-linejoin="miter" marker-start="none" marker-end="none" stroke-miterlimit="79.8403193612775"/>
    <path d="M 1098.2,465.822 L 1200.47,465.822 L 1200.47,459.837 L 1185.6,445.652 L 1111.07,445.652 L 1098.2,459.293 L 1098.2,465.822 Z" fill="#000000" stroke-width="0.506" stroke="none" stroke-linecap="round" stroke-linejoin="round" marker-start="none" marker-end="none" stroke-miterlimit="79.8403193612775"/>
    <path d="M 1152.92,443.637 L 1163.12,443.664 L 1187.1,443.664 L 1195.9,451.97 C 1197.09,449.066 1197.69,445.864 1197.55,442.523 C 1197.01,430.21 1186.58,420.654 1174.27,421.186 C 1161.96,421.721 1152.38,431.325 1152.92,443.637 Z" fill="#000000" stroke-width="0.453" stroke-linecap="round" stroke="none" stroke-linejoin="round" marker-start="none" marker-end="none" stroke-miterlimit="79.8403193612775"/>
    <path d="M 1144.3,443.637 L 1134.1,443.664 L 1110.11,443.664 L 1101.32,451.97 C 1100.12,449.066 1099.53,445.864 1099.67,442.523 C 1100.2,430.21 1110.63,420.654 1122.94,421.186 C 1135.26,421.721 1144.84,431.325 1144.3,443.637 Z" fill="#000000" stroke-width="0.453" stroke-linecap="round" stroke="none" stroke-linejoin="round" marker-start="none" marker-end="none" stroke-miterlimit="79.8403193612775"/>
    <path d="M 927.386,465.822 L 1029.66,465.822 L 1029.66,459.837 L 1014.79,445.652 L 940.258,445.652 L 927.386,459.293 L 927.386,465.822 Z" fill="#000000" stroke-width="0.506" stroke="none" stroke-linecap="round" stroke-linejoin="round" marker-start="none" marker-end="none" stroke-miterlimit="79.8403193612775"/>
    <path d="M 982.101,443.637 L 992.308,443.664 L 1016.29,443.664 L 1025.08,451.97 C 1026.28,449.066 1026.88,445.864 1026.73,442.523 C 1026.2,430.21 1015.77,420.654 1003.46,421.186 C 991.143,421.721 981.567,431.325 982.101,443.637 Z" fill="#000000" stroke-width="0.453" stroke-linecap="round" stroke="none" stroke-linejoin="round" marker-start="none" marker-end="none" stroke-miterlimit="79.8403193612775"/>
    <path d="M 973.487,443.637 L 963.28,443.664 L 939.299,443.664 L 930.505,451.97 C 929.308,449.066 928.712,445.864 928.855,442.523 C 929.39,430.21 939.819,420.654 952.131,421.186 C 964.445,421.721 974.021,431.325 973.487,443.637 Z" fill="#000000" stroke-width="0.453" stroke-linecap="round" stroke="none" stroke-linejoin="round" marker-start="none" marker-end="none" stroke-miterlimit="79.8403193612775"/>
    <path d="M 927.386,483.563 L 927.386,468.468 L 1200.47,468.468 L 1200.47,483.563 L 927.386,483.563 Z" fill="#000000" stroke="none" stroke-width="0.605" stroke-linecap="round" stroke-linejoin="miter" marker-start="none" marker-end="none" stroke-miterlimit="79.8403193612775"/>
    <path d="M 927.388,528.197 L 927.388,492.994 C 927.388,490.699 928.972,488.836 930.923,488.836 L 930.924,488.836 C 932.875,488.836 934.459,490.699 934.459,492.994 L 934.459,528.197 C 934.459,530.491 932.875,532.354 930.924,532.354 L 930.923,532.354 C 928.972,532.354 927.388,530.491 927.388,528.197 Z" fill="#000000" stroke="none" stroke-width="0.605" stroke-linecap="round" stroke-linejoin="miter" marker-start="none" marker-end="none" stroke-miterlimit="79.8403193612775"/>
    <path d="M 1193.4,528.21 L 1193.4,493.007 C 1193.4,490.712 1194.98,488.849 1196.93,488.849 L 1196.93,488.849 C 1198.89,488.849 1200.47,490.712 1200.47,493.007 L 1200.47,528.21 C 1200.47,530.504 1198.89,532.367 1196.93,532.367 L 1196.93,532.367 C 1194.98,532.367 1193.4,530.504 1193.4,528.21 Z" fill="#000000" stroke="none" stroke-width="0.605" stroke-linecap="round" stroke-linejoin="miter" marker-start="none" marker-end="none" stroke-miterlimit="79.8403193612775"/>
    <path d="M 1045.79,532.148 C 1047.6,534.55 1051.01,535.037 1053.41,533.236 C 1055.81,531.435 1056.3,528.022 1054.5,525.62 C 1052.7,523.218 1049.28,522.731 1046.88,524.532 C 1044.48,526.333 1043.99,529.746 1045.79,532.148 Z" fill="#000000" stroke-linecap="round" stroke-linejoin="miter" stroke="none" stroke-width="0.605" marker-start="none" marker-end="none" stroke-miterlimit="79.8403193612775"/>
    <path d="M 1059.94,532.148 C 1061.74,534.55 1065.15,535.037 1067.55,533.236 C 1069.95,531.435 1070.44,528.022 1068.64,525.62 C 1066.84,523.218 1063.43,522.731 1061.02,524.532 C 1058.62,526.333 1058.14,529.746 1059.94,532.148 Z" fill="#000000" stroke-linecap="round" stroke-linejoin="miter" stroke="none" stroke-width="0.605" marker-start="none" marker-end="none" stroke-miterlimit="79.8403193612775"/>
    <path d="M 1074.8,532.148 C 1076.6,534.55 1080.02,535.037 1082.42,533.236 C 1084.82,531.435 1085.31,528.022 1083.51,525.62 C 1081.7,523.218 1078.29,522.731 1075.89,524.532 C 1073.49,526.333 1073,529.746 1074.8,532.148 Z" fill="#000000" stroke-linecap="round" stroke-linejoin="miter" stroke="none" stroke-width="0.605" marker-start="none" marker-end="none" stroke-miterlimit="79.8403193612775"/>
   </g>
   <g id="Title">
    <text xml:space="preserve" transform="translate(38.865 661.631) scale(1 -1)" font-family="Source Sans Pro Black" stroke-linejoin="round" stroke-linecap="round" stroke="none" stroke-width="0.302" fill="#000000" stroke-miterlimit="79.8403193612775"><tspan x="0" y="0" font-size="87.038">F</tspan><tspan x="46.664" y="0" font-size="70">UNCTION</tspan><tspan x="338.796" y="0" font-size="87.038"> J</tspan><tspan x="402.331" y="0" font-size="70">UNCTION</tspan><tspan x="694.463" y="0" font-size="87.038"> T</tspan><tspan x="761.823" y="0" font-size="70">HERAPY</tspan><tspan x="1014.822" y="0" font-size="58.025">, LLC</tspan></text>
    <text xml:space="preserve" transform="translate(312.44 361.73) scale(1 -1)" font-family="Source Sans Pro Black" font-weight="bold" stroke-linejoin="round" stroke-linecap="round" stroke="none" stroke-width="0.302" fill="#000000" stroke-miterlimit="79.8403193612775"><tspan x="0" y="0" font-size="70">P</tspan><tspan x="51.962" y="0" font-size="70">T</tspan><tspan x="100.129" y="0" font-size="70">- </tspan><tspan x="155.995" y="0" font-size="70">O</tspan><tspan x="213.117" y="0" font-size="70">T </tspan><tspan x="284.671" y="0" font-size="70">- </tspan><tspan x="340.537" y="0" font-size="70">S</tspan><tspan x="388.704" y="0" font-size="60">P</tspan><tspan x="433.242" y="0" font-size="60">E</tspan><tspan x="474.059" y="0" font-size="60">E</tspan><tspan x="514.876" y="0" font-size="60">C</tspan><tspan x="557.481" y="0" font-size="60">H</tspan></text>
    <text xml:space="preserve" transform="translate(153.21 309.89) scale(1 -1)" font-family="Source Sans Pro Black" fill="#000000" stroke-width="0.302" stroke="none" stroke-linecap="round" stroke-linejoin="round" font-weight="bold" stroke-miterlimit="79.8403193612775"><tspan x="0" y="0" font-size="70">S</tspan><tspan x="44.908" y="0" font-size="60">P</tspan><tspan x="86.653" y="0" font-size="60">E</tspan><tspan x="124.677" y="0" font-size="60">C</tspan><tspan x="164.489" y="0" font-size="60">I</tspan><tspan x="188.099" y="0" font-size="60">A</tspan><tspan x="227.793" y="0" font-size="60">L</tspan><tspan x="264.236" y="0" font-size="60">I</tspan><tspan x="287.846" y="0" font-size="60">Z</tspan><tspan x="325.02" y="0" font-size="60">I</tspan><tspan x="348.63" y="0" font-size="60">N</tspan><tspan x="393.598" y="0" font-size="60">G</tspan><tspan x="437.013" y="0" font-size="70"> </tspan><tspan x="457.141" y="0" font-size="60">I</tspan><tspan x="480.751" y="0" font-size="60">N</tspan><tspan x="525.719" y="0" font-size="70"> </tspan><tspan x="545.847" y="0" font-size="70">P</tspan><tspan x="594.55" y="0" font-size="60">E</tspan><tspan x="632.574" y="0" font-size="60">D</tspan><tspan x="675.754" y="0" font-size="60">I</tspan><tspan x="699.364" y="0" font-size="60">A</tspan><tspan x="739.058" y="0" font-size="60">T</tspan><tspan x="777.551" y="0" font-size="60">R</tspan><tspan x="819.999" y="0" font-size="60">I</tspan><tspan x="843.609" y="0" font-size="60">C</tspan><tspan x="883.421" y="0" font-size="60">S</tspan></text>
   </g>
  </g>
 </g>
</svg>
