<?xml version="1.0" standalone="no"?>
<!DOCTYPE svg PUBLIC "-//W3C//DTD SVG 1.1//EN" "http://www.w3.org/Graphics/SVG/1.1/DTD/svg11.dtd">
<!--Generator: Xara Designer (www.xara.com), SVG filter version: 6.0.0.4-->
<svg stroke-width="0.501" stroke-linejoin="bevel" fill-rule="evenodd" xmlns:xlink="http://www.w3.org/1999/xlink" xmlns="http://www.w3.org/2000/svg" version="1.1" overflow="visible" width="1224pt" height="792pt" viewBox="0 0 1224 792">
 <defs>
	</defs>
 <g id="Document" fill="none" stroke="black" font-family="Times New Roman" font-size="16" transform="scale(1 -1)">
  <g id="Spread" transform="translate(0 -792)">
   <g id="shoe template"/>
   <g id="hand template"/>
   <g id="Engine">
    <path d="M 252.15,707.6 L 296.427,707.6 C 292.529,704.454 288.503,701.642 285.359,696.533 L 285.359,652.255 C 278.405,643.786 271.057,644.074 263.219,652.255 L 263.219,696.533 C 260.016,700.839 256.221,704.395 252.15,707.6 L 252.15,707.6 Z" fill="#000000" stroke="none" stroke-linejoin="miter" marker-start="none" marker-end="none"/>
    <path d="M 256.579,651.702 C 239.242,641.786 238.08,592.84 241.081,586.947 L 415.975,589.16 L 415.975,649.298 L 351.22,650.594 C 341.714,643.182 331.022,639.85 318.012,651.702 L 289.233,652.255 C 280.273,644.344 271.154,640.551 261.56,651.702 L 256.579,651.702 Z" fill="#000000" stroke="none" stroke-linejoin="miter" marker-start="none" marker-end="none"/>
    <path d="M 346.24,650.4 C 338.814,644.787 330.922,643.088 321.887,650.953 L 321.887,658.702 L 346.24,658.702 L 346.24,650.4 Z" fill="#000000" stroke="none" stroke-linejoin="miter" marker-start="none" marker-end="none"/>
    <path d="M 321.887,660.556 L 346.24,660.556 L 346.24,671.072 L 321.887,671.072 L 321.887,660.556 Z" fill="#000000" stroke="none" stroke-linejoin="miter" marker-start="none" marker-end="none"/>
    <path d="M 321.887,673.041 L 346.24,673.041 C 345.506,682.123 341.845,688.765 333.195,689.455 C 327.219,688.576 322.113,684.093 321.887,673.041 Z" stroke="none" fill="#000000" stroke-linejoin="round" stroke-linecap="round" stroke-width="0.616" marker-start="none" marker-end="none" stroke-miterlimit="79.8403193612775"/>
    <path d="M 238.315,620.154 L 237.207,586.947 C 231.616,588.889 229.75,595.201 230.565,604.658 C 231.297,616.694 234.343,620.138 238.315,620.154 Z" fill="#000000" stroke="none" stroke-linejoin="miter" marker-start="none" marker-end="none"/>
    <path d="M 415.422,580.304 L 242.188,579.198 C 243.468,571.53 246.117,565.907 251.044,563.702 L 415.422,565.914 L 415.422,580.304 Z" fill="#000000" stroke="none" stroke-linejoin="round" stroke-linecap="round" stroke-width="0.616" marker-start="none" marker-end="none" stroke-miterlimit="79.8403193612775"/>
    <path d="M 255.226,556.506 L 255.226,529.386 L 329.635,529.386 L 329.635,556.506 L 255.226,556.506 Z" fill="#000000" stroke="none" stroke-linejoin="round" stroke-linecap="round" stroke-width="0.616" marker-start="none" marker-end="none" stroke-miterlimit="79.8403193612775"/>
    <path d="M 413.207,665.539 L 508.909,665.539 C 505.205,671.66 500.853,677.644 494.567,683.249 L 415.975,683.249 C 413.986,679.499 412.493,673.939 413.207,665.539 Z" stroke="none" fill="#000000" stroke-linejoin="round" stroke-linecap="round" stroke-width="0.616" marker-start="none" marker-end="none" stroke-miterlimit="79.8403193612775"/>
    <path d="M 418.19,564.807 L 418.19,662.217 L 508.958,662.217 L 508.958,658.896 C 508.564,658.424 507.962,658.088 507.296,657.79 L 495.674,653.362 C 492.931,651.517 490.602,648.339 488.478,644.506 C 485.561,632.382 484.985,619.651 484.605,606.872 L 486.819,564.807 L 418.19,564.807 Z M 472.428,601.336 L 472.428,623.475 L 427.044,623.552 L 427.044,601.336 L 472.428,601.336 Z M 472.428,626.795 L 472.428,647.827 L 427.044,647.827 L 427.044,626.795 L 472.428,626.795 Z" stroke="none" fill="#000000" stroke-linejoin="round" stroke-width="0.616" stroke-linecap="round" marker-start="none" marker-end="none" stroke-miterlimit="79.8403193612775"/>
    <path d="M 325.182,501.158 C 319.378,494.743 309.458,494.247 303.043,500.051 C 296.628,505.855 296.132,515.775 301.936,522.19 C 307.74,528.605 317.66,529.101 324.075,523.297 C 330.49,517.493 330.986,507.573 325.182,501.158 Z" fill="#000000" stroke="none" stroke-width="0.616" stroke-linecap="round" stroke-linejoin="round" marker-start="none" marker-end="none" stroke-miterlimit="79.8403193612775"/>
    <path d="M 394.391,505.417 C 382.384,492.89 362.469,492.47 349.942,504.478 C 337.415,516.485 336.995,536.4 349.003,548.927 C 361.01,561.454 380.925,561.874 393.452,549.866 C 405.979,537.859 406.399,517.944 394.391,505.417 Z" fill="#000000" stroke="none" stroke-width="0.616" stroke-linecap="round" stroke-linejoin="round" marker-start="none" marker-end="none" stroke-miterlimit="79.8403193612775"/>
    <path d="M 292.528,500.605 C 286.724,494.19 276.804,493.694 270.389,499.498 C 263.974,505.302 263.478,515.222 269.282,521.637 C 275.086,528.052 285.006,528.548 291.421,522.744 C 297.836,516.94 298.332,507.02 292.528,500.605 Z" fill="#000000" stroke="none" stroke-width="0.616" stroke-linecap="round" stroke-linejoin="round" marker-start="none" marker-end="none" stroke-miterlimit="79.8403193612775"/>
    <path d="M 462.467,505.97 C 450.46,493.443 430.545,493.023 418.018,505.031 C 405.491,517.038 405.071,536.953 417.079,549.48 C 429.086,562.007 449.001,562.427 461.528,550.419 C 474.055,538.412 474.475,518.497 462.467,505.97 Z" fill="#000000" stroke="none" stroke-width="0.616" stroke-linecap="round" stroke-linejoin="round" marker-start="none" marker-end="none" stroke-miterlimit="79.8403193612775"/>
    <path d="M 259.943,501.909 L 260.036,524.455 L 255.771,524.455 L 253.438,501.909 L 259.943,501.909 Z" fill="#000000" stroke="none" stroke-linejoin="round" stroke-linecap="round" stroke-width="0.864" marker-start="none" marker-end="none" stroke-miterlimit="79.8403193612775"/>
    <path d="M 250.33,501.909 L 242.555,501.909 L 249.552,529.12 L 252.662,538.451 L 250.33,501.909 Z" fill="#000000" stroke="none" stroke-linejoin="round" stroke-linecap="round" stroke-width="0.864" marker-start="none" marker-end="none" stroke-miterlimit="79.8403193612775"/>
    <path d="M 238.666,501.909 L 230.115,501.909 L 239.444,522.901 L 252.195,543.891 L 238.666,501.909 Z" fill="#000000" stroke="none" stroke-linejoin="round" stroke-linecap="round" stroke-width="0.864" marker-start="none" marker-end="none" stroke-miterlimit="79.8403193612775"/>
    <path d="M 225.45,501.909 L 218.452,501.909 L 230.115,523.678 L 252.195,547.78 L 235.557,522.124 L 225.45,501.909 Z" fill="#000000" stroke="none" stroke-linejoin="round" stroke-linecap="round" stroke-width="0.864" marker-start="none" marker-end="none" stroke-miterlimit="79.8403193612775"/>
    <path d="M 215.653,501.909 L 208.345,501.909 L 225.76,529.12 L 252.195,550.113 L 228.093,525.233 L 215.653,501.909 Z" fill="#000000" stroke="none" stroke-linejoin="round" stroke-linecap="round" stroke-width="0.864" marker-start="none" marker-end="none" stroke-miterlimit="79.8403193612775"/>
    <path d="M 204.77,501.909 L 196.682,501.909 L 220.008,531.452 L 243.644,548.556 L 252.195,554.198 L 252.195,552.445 L 223.895,530.675 L 204.77,501.909 Z" fill="#000000" stroke="none" stroke-linejoin="round" stroke-linecap="round" stroke-width="0.864" marker-start="none" marker-end="none" stroke-miterlimit="79.8403193612775"/>
    <path d="M 252.15,707.6 L 252.15,711.476 L 296.429,711.562 L 296.427,707.6 L 274.705,707.6 L 252.15,707.6 Z" stroke="none" fill="#000000" stroke-linejoin="round" stroke-linecap="round" stroke-width="0.864" marker-start="none" marker-end="none" stroke-miterlimit="79.8403193612775"/>
   </g>
   <g id="Hand Car"/>
   <g id="Shoe Car"/>
   <g id="Caboose"/>
   <g id="Title">
    <text xml:space="preserve" transform="translate(535.041 649.946) scale(1 -1)" font-family="Luckiest Guy" stroke-linejoin="round" stroke-linecap="round" stroke="none" stroke-width="0.302" fill="#000000" stroke-miterlimit="79.8403193612775"><tspan x="0" y="0" font-size="87.038">F</tspan><tspan x="46.542" y="0" font-size="70">u</tspan><tspan x="92.655" y="0" font-size="70">n</tspan><tspan x="141.605" y="0" font-size="70">c</tspan><tspan x="180.814" y="0" font-size="70">t</tspan><tspan x="222.278" y="0" font-size="70">i</tspan><tspan x="246.208" y="0" font-size="70">o</tspan><tspan x="294.167" y="0" font-size="70">n</tspan><tspan x="343.117" y="0" font-size="87.038"> </tspan><tspan x="0" y="74.67" font-size="87.038">J</tspan><tspan x="48.497" y="74.67" font-size="70">u</tspan><tspan x="94.61" y="74.67" font-size="70">n</tspan><tspan x="143.56" y="74.67" font-size="70">c</tspan><tspan x="182.769" y="74.67" font-size="70">t</tspan><tspan x="224.233" y="74.67" font-size="70">i</tspan><tspan x="248.163" y="74.67" font-size="70">o</tspan><tspan x="296.122" y="74.67" font-size="70">n</tspan><tspan x="345.072" y="74.67" font-size="87.038"> </tspan><tspan x="0" y="149.34" font-size="87.038">T</tspan><tspan x="51.387" y="149.34" font-size="70">h</tspan><tspan x="98.525" y="149.34" font-size="70">e</tspan><tspan x="142.212" y="149.34" font-size="70">r</tspan><tspan x="187.949" y="149.34" font-size="70">a</tspan><tspan x="235.087" y="149.34" font-size="70">p</tspan><tspan x="280.175" y="149.34" font-size="70">y</tspan><tspan x="321.367" y="149.34" font-size="70">,</tspan><tspan x="336.953" y="149.34" font-size="58.025"> </tspan><tspan x="348.286" y="149.34" font-size="50">LLC</tspan></text>
    <text xml:space="preserve" transform="translate(162.931 438.18) scale(1 -1)" font-size="60" font-family="Source Sans Pro Black" fill="#000000" stroke-width="0.302" stroke="none" stroke-linecap="round" stroke-linejoin="round" font-weight="bold" stroke-miterlimit="79.8403193612775"><tspan x="0" y="0">S</tspan><tspan x="38.493" y="0">P</tspan><tspan x="80.238" y="0">E</tspan><tspan x="118.262" y="0">C</tspan><tspan x="158.074" y="0">I</tspan><tspan x="181.684" y="0">A</tspan><tspan x="221.378" y="0">L</tspan><tspan x="257.821" y="0">I</tspan><tspan x="281.431" y="0">Z</tspan><tspan x="318.605" y="0">I</tspan><tspan x="342.215" y="0">N</tspan><tspan x="387.183" y="0">G </tspan><tspan x="447.851" y="0">I</tspan><tspan x="471.461" y="0">N </tspan><tspan x="533.682" y="0">P</tspan><tspan x="575.427" y="0">E</tspan><tspan x="613.451" y="0">D</tspan><tspan x="656.631" y="0">I</tspan><tspan x="680.241" y="0">A</tspan><tspan x="719.935" y="0">T</tspan><tspan x="758.428" y="0">R</tspan><tspan x="800.876" y="0">I</tspan><tspan x="824.486" y="0">C</tspan><tspan x="864.298" y="0">S</tspan></text>
   </g>
  </g>
 </g>
</svg>
