<?xml version="1.0" standalone="no"?>
<!DOCTYPE svg PUBLIC "-//W3C//DTD SVG 1.1//EN" "http://www.w3.org/Graphics/SVG/1.1/DTD/svg11.dtd">
<!--Generator: Xara Designer (www.xara.com), SVG filter version: 6.0.0.4-->
<svg stroke-width="0.501" stroke-linejoin="bevel" fill-rule="evenodd" xmlns:xlink="http://www.w3.org/1999/xlink" xmlns="http://www.w3.org/2000/svg" version="1.1" overflow="visible" width="1224pt" height="792pt" viewBox="0 0 1224 792">
 <defs>
  <linearGradient id="LinearGradient" gradientUnits="userSpaceOnUse" x1="0" y1="0" x2="-7.072" y2="96.83" gradientTransform="translate(364.906 542.292)">
   <stop offset="0" stop-color="#4b4b4b"/>
   <stop offset="1" stop-color="#737373"/>
  </linearGradient>
  <linearGradient id="LinearGradient_1" gradientUnits="userSpaceOnUse" x1="0" y1="0" x2="-7.072" y2="96.83" gradientTransform="translate(364.906 542.292)">
   <stop offset="0" stop-color="#4b4b4b"/>
   <stop offset="1" stop-color="#737373"/>
  </linearGradient>
  <linearGradient id="LinearGradient_2" gradientUnits="userSpaceOnUse" x1="0" y1="0" x2="-7.072" y2="96.83" gradientTransform="translate(364.906 542.292)">
   <stop offset="0" stop-color="#4b4b4b"/>
   <stop offset="1" stop-color="#737373"/>
  </linearGradient>
  <linearGradient id="LinearGradient_3" gradientUnits="userSpaceOnUse" x1="0" y1="0" x2="-7.072" y2="96.83" gradientTransform="translate(364.906 542.292)">
   <stop offset="0" stop-color="#4b4b4b"/>
   <stop offset="1" stop-color="#737373"/>
  </linearGradient>
  <linearGradient id="LinearGradient_4" gradientUnits="userSpaceOnUse" x1="0" y1="0" x2="-7.072" y2="96.83" gradientTransform="translate(364.906 542.292)">
   <stop offset="0" stop-color="#4b4b4b"/>
   <stop offset="1" stop-color="#737373"/>
  </linearGradient>
  <linearGradient id="LinearGradient_5" gradientUnits="userSpaceOnUse" x1="0" y1="0" x2="-7.072" y2="96.83" gradientTransform="translate(364.906 542.292)">
   <stop offset="0" stop-color="#4b4b4b"/>
   <stop offset="1" stop-color="#737373"/>
  </linearGradient>
  <linearGradient id="LinearGradient_6" gradientUnits="userSpaceOnUse" x1="0" y1="0" x2="-7.072" y2="96.83" gradientTransform="translate(364.906 542.292)">
   <stop offset="0" stop-color="#4b4b4b"/>
   <stop offset="1" stop-color="#737373"/>
  </linearGradient>
  <linearGradient id="LinearGradient_7" gradientUnits="userSpaceOnUse" x1="0" y1="0" x2="-7.072" y2="96.83" gradientTransform="translate(364.906 542.292)">
   <stop offset="0" stop-color="#4b4b4b"/>
   <stop offset="1" stop-color="#737373"/>
  </linearGradient>
  <linearGradient id="LinearGradient_8" gradientUnits="userSpaceOnUse" x1="0" y1="0" x2="-7.072" y2="96.83" gradientTransform="translate(364.906 542.292)">
   <stop offset="0" stop-color="#4b4b4b"/>
   <stop offset="1" stop-color="#737373"/>
  </linearGradient>
  <linearGradient id="LinearGradient_9" gradientUnits="userSpaceOnUse" x1="0" y1="0" x2="-7.072" y2="96.83" gradientTransform="translate(364.906 542.292)">
   <stop offset="0" stop-color="#4b4b4b"/>
   <stop offset="1" stop-color="#737373"/>
  </linearGradient>
  <linearGradient id="LinearGradient_10" gradientUnits="userSpaceOnUse" x1="0" y1="0" x2="-7.072" y2="96.83" gradientTransform="translate(364.906 542.292)">
   <stop offset="0" stop-color="#4b4b4b"/>
   <stop offset="1" stop-color="#737373"/>
  </linearGradient>
  <linearGradient id="LinearGradient_11" gradientUnits="userSpaceOnUse" x1="0" y1="0" x2="-7.072" y2="96.83" gradientTransform="translate(364.906 542.292)">
   <stop offset="0" stop-color="#4b4b4b"/>
   <stop offset="1" stop-color="#737373"/>
  </linearGradient>
  <linearGradient id="LinearGradient_12" gradientUnits="userSpaceOnUse" x1="0" y1="0" x2="-7.072" y2="96.83" gradientTransform="translate(364.906 542.292)">
   <stop offset="0" stop-color="#4b4b4b"/>
   <stop offset="1" stop-color="#737373"/>
  </linearGradient>
  <linearGradient id="LinearGradient_13" gradientUnits="userSpaceOnUse" x1="0" y1="0" x2="-7.072" y2="96.83" gradientTransform="translate(364.906 542.292)">
   <stop offset="0" stop-color="#4b4b4b"/>
   <stop offset="1" stop-color="#737373"/>
  </linearGradient>
  <linearGradient id="LinearGradient_14" gradientUnits="userSpaceOnUse" x1="0" y1="0" x2="-7.072" y2="96.83" gradientTransform="translate(364.906 542.292)">
   <stop offset="0" stop-color="#4b4b4b"/>
   <stop offset="1" stop-color="#737373"/>
  </linearGradient>
  <linearGradient id="LinearGradient_15" gradientUnits="userSpaceOnUse" x1="0" y1="0" x2="-7.072" y2="96.83" gradientTransform="translate(364.906 542.292)">
   <stop offset="0" stop-color="#4b4b4b"/>
   <stop offset="1" stop-color="#737373"/>
  </linearGradient>
  <linearGradient id="LinearGradient_16" gradientUnits="userSpaceOnUse" x1="0" y1="0" x2="-7.072" y2="96.83" gradientTransform="translate(364.906 542.292)">
   <stop offset="0" stop-color="#4b4b4b"/>
   <stop offset="1" stop-color="#737373"/>
  </linearGradient>
  <linearGradient id="LinearGradient_17" gradientUnits="userSpaceOnUse" x1="0" y1="0" x2="-7.072" y2="96.83" gradientTransform="translate(364.906 542.292)">
   <stop offset="0" stop-color="#4b4b4b"/>
   <stop offset="1" stop-color="#737373"/>
  </linearGradient>
  <linearGradient id="LinearGradient_18" gradientUnits="userSpaceOnUse" x1="0" y1="0" x2="-7.072" y2="96.83" gradientTransform="translate(364.906 542.292)">
   <stop offset="0" stop-color="#4b4b4b"/>
   <stop offset="1" stop-color="#737373"/>
  </linearGradient>
  <linearGradient id="LinearGradient_19" gradientUnits="userSpaceOnUse" x1="0" y1="0" x2="-7.072" y2="96.83" gradientTransform="translate(364.906 542.292)">
   <stop offset="0" stop-color="#4b4b4b"/>
   <stop offset="1" stop-color="#737373"/>
  </linearGradient>
  <linearGradient id="LinearGradient_20" gradientUnits="userSpaceOnUse" x1="0" y1="0" x2="-7.072" y2="96.83" gradientTransform="translate(364.906 542.292)">
   <stop offset="0" stop-color="#4b4b4b"/>
   <stop offset="1" stop-color="#737373"/>
  </linearGradient>
  <linearGradient id="LinearGradient_21" gradientUnits="userSpaceOnUse" x1="0" y1="0" x2="-19.742" y2="137.185" gradientTransform="translate(945.701 522.389)">
   <stop offset="0" stop-color="#525252"/>
   <stop offset="1" stop-color="#666666"/>
  </linearGradient>
  <linearGradient id="LinearGradient_22" gradientUnits="userSpaceOnUse" x1="0" y1="0" x2="-19.742" y2="137.185" gradientTransform="translate(945.701 522.389)">
   <stop offset="0" stop-color="#525252"/>
   <stop offset="1" stop-color="#666666"/>
  </linearGradient>
  <linearGradient id="LinearGradient_23" gradientUnits="userSpaceOnUse" x1="0" y1="0" x2="-19.742" y2="137.185" gradientTransform="translate(945.701 522.389)">
   <stop offset="0" stop-color="#525252"/>
   <stop offset="1" stop-color="#666666"/>
  </linearGradient>
  <linearGradient id="LinearGradient_24" gradientUnits="userSpaceOnUse" x1="0" y1="0" x2="-19.742" y2="137.185" gradientTransform="translate(945.701 522.389)">
   <stop offset="0" stop-color="#525252"/>
   <stop offset="1" stop-color="#666666"/>
  </linearGradient>
  <linearGradient id="LinearGradient_25" gradientUnits="userSpaceOnUse" x1="0" y1="0" x2="-19.742" y2="137.185" gradientTransform="translate(945.701 522.389)">
   <stop offset="0" stop-color="#525252"/>
   <stop offset="1" stop-color="#666666"/>
  </linearGradient>
  <linearGradient id="LinearGradient_26" gradientUnits="userSpaceOnUse" x1="0" y1="0" x2="-19.742" y2="137.185" gradientTransform="translate(945.701 522.389)">
   <stop offset="0" stop-color="#525252"/>
   <stop offset="1" stop-color="#666666"/>
  </linearGradient>
  <linearGradient id="LinearGradient_27" gradientUnits="userSpaceOnUse" x1="0" y1="0" x2="-19.742" y2="137.185" gradientTransform="translate(945.701 522.389)">
   <stop offset="0" stop-color="#525252"/>
   <stop offset="1" stop-color="#666666"/>
  </linearGradient>
  <linearGradient id="LinearGradient_28" gradientUnits="userSpaceOnUse" x1="0" y1="0" x2="-19.742" y2="137.185" gradientTransform="translate(945.701 522.389)">
   <stop offset="0" stop-color="#525252"/>
   <stop offset="1" stop-color="#666666"/>
  </linearGradient>
  <linearGradient id="LinearGradient_29" gradientUnits="userSpaceOnUse" x1="0" y1="0" x2="-17.407" y2="158.845" gradientTransform="translate(644.534 533.806)">
   <stop offset="0" stop-color="#5c5c5c"/>
   <stop offset="1" stop-color="#737373"/>
  </linearGradient>
  <linearGradient id="LinearGradient_30" gradientUnits="userSpaceOnUse" x1="0" y1="0" x2="-17.407" y2="158.845" gradientTransform="translate(644.534 533.806)">
   <stop offset="0" stop-color="#5c5c5c"/>
   <stop offset="1" stop-color="#737373"/>
  </linearGradient>
  <linearGradient id="LinearGradient_31" gradientUnits="userSpaceOnUse" x1="0" y1="0" x2="-17.407" y2="158.845" gradientTransform="translate(644.534 533.806)">
   <stop offset="0" stop-color="#5c5c5c"/>
   <stop offset="1" stop-color="#737373"/>
  </linearGradient>
  <linearGradient id="LinearGradient_32" gradientUnits="userSpaceOnUse" x1="0" y1="0" x2="-17.407" y2="158.845" gradientTransform="translate(644.534 533.806)">
   <stop offset="0" stop-color="#5c5c5c"/>
   <stop offset="1" stop-color="#737373"/>
  </linearGradient>
  <linearGradient id="LinearGradient_33" gradientUnits="userSpaceOnUse" x1="0" y1="0" x2="-17.407" y2="158.845" gradientTransform="translate(644.534 533.806)">
   <stop offset="0" stop-color="#5c5c5c"/>
   <stop offset="1" stop-color="#737373"/>
  </linearGradient>
  <linearGradient id="LinearGradient_34" gradientUnits="userSpaceOnUse" x1="0" y1="0" x2="-17.407" y2="158.845" gradientTransform="translate(644.534 533.806)">
   <stop offset="0" stop-color="#5c5c5c"/>
   <stop offset="1" stop-color="#737373"/>
  </linearGradient>
  <linearGradient id="LinearGradient_35" gradientUnits="userSpaceOnUse" x1="0" y1="0" x2="-17.407" y2="158.845" gradientTransform="translate(644.534 533.806)">
   <stop offset="0" stop-color="#5c5c5c"/>
   <stop offset="1" stop-color="#737373"/>
  </linearGradient>
  <linearGradient id="LinearGradient_36" gradientUnits="userSpaceOnUse" x1="0" y1="0" x2="-17.407" y2="158.845" gradientTransform="translate(644.534 533.806)">
   <stop offset="0" stop-color="#5c5c5c"/>
   <stop offset="1" stop-color="#737373"/>
  </linearGradient>
  <linearGradient id="LinearGradient_37" gradientUnits="userSpaceOnUse" x1="0" y1="0" x2="-47.327" y2="252.41" gradientTransform="translate(1277.72 507.694)">
   <stop offset="0" stop-color="#454545"/>
   <stop offset="1" stop-color="#737373"/>
  </linearGradient>
  <linearGradient id="LinearGradient_38" gradientUnits="userSpaceOnUse" x1="0" y1="0" x2="-47.327" y2="252.41" gradientTransform="translate(1277.72 507.694)">
   <stop offset="0" stop-color="#454545"/>
   <stop offset="1" stop-color="#737373"/>
  </linearGradient>
  <linearGradient id="LinearGradient_39" gradientUnits="userSpaceOnUse" x1="0" y1="0" x2="-47.327" y2="252.41" gradientTransform="translate(1277.72 507.694)">
   <stop offset="0" stop-color="#454545"/>
   <stop offset="1" stop-color="#737373"/>
  </linearGradient>
  <linearGradient id="LinearGradient_40" gradientUnits="userSpaceOnUse" x1="0" y1="0" x2="-47.327" y2="252.41" gradientTransform="translate(1277.72 507.694)">
   <stop offset="0" stop-color="#454545"/>
   <stop offset="1" stop-color="#737373"/>
  </linearGradient>
  <linearGradient id="LinearGradient_41" gradientUnits="userSpaceOnUse" x1="0" y1="0" x2="-47.327" y2="252.41" gradientTransform="translate(1277.72 507.694)">
   <stop offset="0" stop-color="#454545"/>
   <stop offset="1" stop-color="#737373"/>
  </linearGradient>
  <linearGradient id="LinearGradient_42" gradientUnits="userSpaceOnUse" x1="0" y1="0" x2="-47.327" y2="252.41" gradientTransform="translate(1277.72 507.694)">
   <stop offset="0" stop-color="#454545"/>
   <stop offset="1" stop-color="#737373"/>
  </linearGradient>
  <linearGradient id="LinearGradient_43" gradientUnits="userSpaceOnUse" x1="0" y1="0" x2="-47.327" y2="252.41" gradientTransform="translate(1277.72 507.694)">
   <stop offset="0" stop-color="#454545"/>
   <stop offset="1" stop-color="#737373"/>
  </linearGradient>
  <linearGradient id="LinearGradient_44" gradientUnits="userSpaceOnUse" x1="0" y1="0" x2="-47.327" y2="252.41" gradientTransform="translate(1277.72 507.694)">
   <stop offset="0" stop-color="#454545"/>
   <stop offset="1" stop-color="#737373"/>
  </linearGradient>
  <linearGradient id="LinearGradient_45" gradientUnits="userSpaceOnUse" x1="0" y1="0" x2="-47.327" y2="252.41" gradientTransform="translate(1277.72 507.694)">
   <stop offset="0" stop-color="#454545"/>
   <stop offset="1" stop-color="#737373"/>
  </linearGradient>
  <linearGradient id="LinearGradient_46" gradientUnits="userSpaceOnUse" x1="0" y1="0" x2="-47.327" y2="252.41" gradientTransform="translate(1277.72 507.694)">
   <stop offset="0" stop-color="#454545"/>
   <stop offset="1" stop-color="#737373"/>
  </linearGradient>
  <linearGradient id="LinearGradient_47" gradientUnits="userSpaceOnUse" x1="0" y1="0" x2="-47.327" y2="252.41" gradientTransform="translate(1277.72 507.694)">
   <stop offset="0" stop-color="#454545"/>
   <stop offset="1" stop-color="#737373"/>
  </linearGradient>
  <linearGradient id="LinearGradient_48" gradientUnits="userSpaceOnUse" x1="0" y1="0" x2="-47.327" y2="252.41" gradientTransform="translate(1277.72 511.176)">
   <stop offset="0" stop-color="#454545"/>
   <stop offset="1" stop-color="#737373"/>
  </linearGradient>
  <linearGradient id="LinearGradient_49" gradientUnits="userSpaceOnUse" x1="0" y1="0" x2="-47.327" y2="252.41" gradientTransform="translate(1277.72 511.176)">
   <stop offset="0" stop-color="#454545"/>
   <stop offset="1" stop-color="#737373"/>
  </linearGradient>
  <linearGradient id="LinearGradient_50" gradientUnits="userSpaceOnUse" x1="0" y1="0" x2="-47.327" y2="252.41" gradientTransform="translate(1277.72 507.694)">
   <stop offset="0" stop-color="#454545"/>
   <stop offset="1" stop-color="#737373"/>
  </linearGradient>
  <linearGradient id="LinearGradient_51" gradientUnits="userSpaceOnUse" x1="0" y1="0" x2="-47.327" y2="252.41" gradientTransform="translate(1277.72 507.694)">
   <stop offset="0" stop-color="#454545"/>
   <stop offset="1" stop-color="#737373"/>
  </linearGradient>
  <linearGradient id="LinearGradient_52" gradientUnits="userSpaceOnUse" x1="0" y1="0" x2="-47.327" y2="252.41" gradientTransform="translate(1277.72 507.694)">
   <stop offset="0" stop-color="#454545"/>
   <stop offset="1" stop-color="#737373"/>
  </linearGradient>
 </defs>
 <g id="Document" fill="none" stroke="black" font-family="Times New Roman" font-size="16" transform="scale(1 -1)">
  <g id="Spread" transform="translate(0 -792)">
   <g id="shoe template"/>
   <g id="hand template"/>
   <g id="Engine">
    <path d="M 78.225,746.83 L 121.744,746.83 C 117.913,743.738 113.956,740.974 110.866,735.952 L 110.866,692.432 C 104.031,684.108 96.808,684.391 89.105,692.432 L 89.105,735.952 C 85.956,740.184 82.226,743.68 78.225,746.83 L 78.225,746.83 Z" stroke="none" stroke-linejoin="miter" marker-start="none" marker-end="none" fill="url(#LinearGradient)"/>
    <path d="M 82.578,691.889 C 65.538,682.143 64.396,634.035 67.346,628.242 L 239.245,630.418 L 239.245,689.526 L 175.599,690.8 C 166.256,683.515 155.747,680.24 142.96,691.889 L 114.673,692.432 C 105.867,684.657 96.904,680.929 87.474,691.889 L 82.578,691.889 Z" stroke="none" stroke-linejoin="miter" marker-start="none" marker-end="none" fill="url(#LinearGradient_1)"/>
    <path d="M 170.704,690.609 C 163.405,685.092 155.648,683.422 146.768,691.153 L 146.768,698.769 L 170.704,698.769 L 170.704,690.609 Z" stroke="none" stroke-linejoin="miter" marker-start="none" marker-end="none" fill="url(#LinearGradient_2)"/>
    <path d="M 146.768,700.591 L 170.704,700.591 L 170.704,710.927 L 146.768,710.927 L 146.768,700.591 Z" stroke="none" stroke-linejoin="miter" marker-start="none" marker-end="none" fill="url(#LinearGradient_3)"/>
    <path d="M 146.768,712.862 L 170.704,712.862 C 169.983,721.789 166.384,728.317 157.883,728.995 C 152.009,728.131 146.99,723.725 146.768,712.862 Z" stroke="#737373" stroke-linejoin="round" stroke-linecap="round" stroke-width="0.605" marker-start="none" marker-end="none" stroke-miterlimit="79.8403193612775" fill="url(#LinearGradient_4)"/>
    <path d="M 64.627,660.881 L 63.538,628.242 C 58.043,630.151 56.209,636.355 57.01,645.65 C 57.729,657.48 60.723,660.865 64.627,660.881 Z" stroke="none" stroke-linejoin="miter" marker-start="none" marker-end="none" fill="url(#LinearGradient_5)"/>
    <path d="M 238.702,621.713 L 68.434,620.626 C 69.692,613.089 72.295,607.563 77.138,605.395 L 238.702,607.57 L 238.702,621.713 Z" stroke="none" stroke-linejoin="round" stroke-linecap="round" stroke-width="0.605" marker-start="none" marker-end="none" stroke-miterlimit="79.8403193612775" fill="url(#LinearGradient_6)"/>
    <path d="M 81.248,598.323 L 81.248,571.667 L 154.384,571.667 L 154.384,598.323 L 81.248,598.323 Z" stroke="none" stroke-linejoin="round" stroke-linecap="round" stroke-width="0.605" marker-start="none" marker-end="none" stroke-miterlimit="79.8403193612775" fill="url(#LinearGradient_7)"/>
    <path d="M 236.525,705.489 L 330.588,705.489 C 326.948,711.505 322.67,717.387 316.492,722.896 L 239.245,722.896 C 237.29,719.21 235.823,713.745 236.525,705.489 Z" stroke="#737373" stroke-linejoin="round" stroke-linecap="round" stroke-width="0.605" marker-start="none" marker-end="none" stroke-miterlimit="79.8403193612775" fill="url(#LinearGradient_8)"/>
    <path d="M 241.422,606.482 L 241.422,702.224 L 330.636,702.224 L 330.636,698.96 C 330.249,698.496 329.657,698.165 329.003,697.873 L 317.58,693.52 C 314.884,691.707 312.595,688.583 310.507,684.816 C 307.64,672.9 307.074,660.387 306.7,647.826 L 308.876,606.482 L 241.422,606.482 Z M 294.732,642.385 L 294.732,664.145 L 250.125,664.221 L 250.125,642.385 L 294.732,642.385 Z M 294.732,667.408 L 294.732,688.08 L 250.125,688.08 L 250.125,667.408 L 294.732,667.408 Z" stroke="#737373" stroke-linejoin="round" stroke-width="0.605" stroke-linecap="round" marker-start="none" marker-end="none" stroke-miterlimit="79.8403193612775" fill="url(#LinearGradient_9)"/>
    <path d="M 150.007,543.923 C 144.302,537.618 134.553,537.131 128.247,542.835 C 121.942,548.54 121.455,558.289 127.159,564.595 C 132.864,570.9 142.613,571.387 148.919,565.683 C 155.224,559.978 155.711,550.229 150.007,543.923 Z" stroke="none" stroke-width="0.605" stroke-linecap="round" stroke-linejoin="round" marker-start="none" marker-end="none" stroke-miterlimit="79.8403193612775" fill="url(#LinearGradient_10)"/>
    <path d="M 218.032,548.109 C 206.23,535.796 186.656,535.383 174.344,547.185 C 162.031,558.987 161.618,578.561 173.42,590.873 C 185.222,603.186 204.796,603.599 217.108,591.797 C 229.421,579.995 229.834,560.421 218.032,548.109 Z" stroke="none" stroke-width="0.605" stroke-linecap="round" stroke-linejoin="round" marker-start="none" marker-end="none" stroke-miterlimit="79.8403193612775" fill="url(#LinearGradient_11)"/>
    <path d="M 117.912,543.379 C 112.207,537.074 102.458,536.587 96.152,542.291 C 89.847,547.996 89.36,557.745 95.064,564.051 C 100.769,570.356 110.518,570.843 116.824,565.139 C 123.129,559.434 123.616,549.685 117.912,543.379 Z" stroke="none" stroke-width="0.605" stroke-linecap="round" stroke-linejoin="round" marker-start="none" marker-end="none" stroke-miterlimit="79.8403193612775" fill="url(#LinearGradient_12)"/>
    <path d="M 284.942,548.653 C 273.14,536.34 253.566,535.927 241.254,547.729 C 228.941,559.531 228.528,579.105 240.33,591.417 C 252.132,603.73 271.706,604.143 284.018,592.341 C 296.331,580.539 296.744,560.965 284.942,548.653 Z" stroke="none" stroke-width="0.605" stroke-linecap="round" stroke-linejoin="round" marker-start="none" marker-end="none" stroke-miterlimit="79.8403193612775" fill="url(#LinearGradient_13)"/>
    <path d="M 85.885,544.66 L 85.976,566.82 L 81.784,566.82 L 79.491,544.66 L 85.885,544.66 Z" stroke="none" stroke-linejoin="round" stroke-linecap="round" stroke-width="0.849" marker-start="none" marker-end="none" stroke-miterlimit="79.8403193612775" fill="url(#LinearGradient_14)"/>
    <path d="M 76.436,544.66 L 68.794,544.66 L 75.672,571.406 L 78.728,580.577 L 76.436,544.66 Z" stroke="none" stroke-linejoin="round" stroke-linecap="round" stroke-width="0.849" marker-start="none" marker-end="none" stroke-miterlimit="79.8403193612775" fill="url(#LinearGradient_15)"/>
    <path d="M 64.972,544.66 L 56.567,544.66 L 65.737,565.293 L 78.269,585.924 L 64.972,544.66 Z" stroke="none" stroke-linejoin="round" stroke-linecap="round" stroke-width="0.849" marker-start="none" marker-end="none" stroke-miterlimit="79.8403193612775" fill="url(#LinearGradient_16)"/>
    <path d="M 51.982,544.66 L 45.104,544.66 L 56.567,566.057 L 78.269,589.746 L 61.916,564.529 L 51.982,544.66 Z" stroke="none" stroke-linejoin="round" stroke-linecap="round" stroke-width="0.849" marker-start="none" marker-end="none" stroke-miterlimit="79.8403193612775" fill="url(#LinearGradient_17)"/>
    <path d="M 42.353,544.66 L 35.17,544.66 L 52.287,571.406 L 78.269,592.039 L 54.58,567.585 L 42.353,544.66 Z" stroke="none" stroke-linejoin="round" stroke-linecap="round" stroke-width="0.849" marker-start="none" marker-end="none" stroke-miterlimit="79.8403193612775" fill="url(#LinearGradient_18)"/>
    <path d="M 31.656,544.66 L 23.707,544.66 L 46.633,573.698 L 69.865,590.509 L 78.269,596.054 L 78.269,594.331 L 50.454,572.934 L 31.656,544.66 Z" stroke="none" stroke-linejoin="round" stroke-linecap="round" stroke-width="0.849" marker-start="none" marker-end="none" stroke-miterlimit="79.8403193612775" fill="url(#LinearGradient_19)"/>
    <path d="M 78.225,746.83 L 78.225,750.639 L 121.746,750.724 L 121.744,746.83 L 100.394,746.83 L 78.225,746.83 Z" stroke="#737373" stroke-linejoin="round" stroke-linecap="round" stroke-width="0.849" marker-start="none" marker-end="none" stroke-miterlimit="79.8403193612775" fill="url(#LinearGradient_20)"/>
   </g>
   <g id="Hand Car">
    <path d="M 727.056,605.543 C 715.07,613.947 711.558,629.278 706.761,638.237 L 706.605,638.567 L 706.405,639.038 L 706.296,639.324 C 705.031,643.05 705.94,650.219 707.256,657.586 C 708.668,665.492 710.906,675.101 713.392,684.552 C 716.854,697.722 721.26,712.328 724.584,720.589 L 725.88,723.546 L 725.779,724.271 C 725.875,725.858 726.9,727.311 728.492,727.875 C 731.574,728.963 734.719,729.471 737.49,728.414 C 738.881,727.885 740.024,727.013 740.893,725.895 C 743.417,722.644 743.213,717.775 742.804,714.049 C 742.351,709.933 741.305,705.023 740.482,700.57 C 738.721,691.062 738.54,685.748 740.079,683.29 C 740.049,682.945 740.147,682.556 740.385,682.224 C 745.59,674.89 748.265,669.063 748.77,663.13 C 749.274,657.196 747.626,650.898 743.639,642.577 C 743.233,641.732 743.591,640.716 744.437,640.309 C 745.283,639.905 746.298,640.263 746.705,641.11 C 750.803,649.662 752.736,656.608 752.158,663.418 C 751.605,669.929 748.776,676.082 743.852,683.2 L 746.47,683.185 C 749.24,683.248 751.317,683.479 752.524,683.904 C 763.496,687.767 771.206,699.761 779.23,713.033 C 786.124,724.439 794.693,739.683 807.044,742.085 C 808.161,742.303 809.321,742.042 810.24,741.368 C 811.97,740.095 813.619,738.778 814.633,737.213 C 815.56,735.781 815.899,734.27 815.77,732.699 C 815.62,730.859 814.544,728.227 813.983,726.437 C 812.306,721.071 804.594,711.008 798.312,702.266 C 795.504,695.098 785.941,687.431 788.117,684.167 C 792.402,682.032 803.053,694.54 812.555,701.307 C 822.022,708.352 837.228,721.747 846.311,715.934 C 846.814,715.615 847.24,715.187 847.592,714.631 C 849.168,712.098 850.383,706.753 848.714,702.914 C 848.226,701.788 847.395,700.586 846.043,699.743 C 841.226,696.741 828.804,686.2 818.038,678.183 C 810.977,671.838 797.626,663.651 800.63,661.32 C 805.268,660.224 815.792,663.912 827.281,668.715 C 835.807,671.669 849.472,676.791 855.13,675.929 C 855.737,675.836 856.318,675.608 856.825,675.258 C 864.393,670.059 862.965,661.351 855.683,657.05 C 844.458,650.418 827.225,647.065 814.897,643.945 C 808.717,641.65 804.972,639.349 805.526,636.297 C 810.575,633.971 816.56,635.501 822.4,636.429 C 830.199,639.154 850.291,638.559 850.677,633.577 C 850.701,629.9 850.757,627.777 845.78,624.873 C 837.563,620.077 828.744,620.307 818.408,618.132 C 809.59,617.56 801.162,615.067 798.07,614.597 L 797.117,614.381 C 780.708,603.913 750.27,589.266 727.056,605.543 Z M 797.329,614.513 L 797.102,614.377 L 797.329,614.513 Z" stroke="none" stroke-linejoin="miter" marker-start="none" marker-end="none" fill="url(#LinearGradient_21)"/>
    <path d="M 799.007,583.902 L 901.276,583.902 L 901.276,577.917 L 886.407,563.732 L 811.881,563.732 L 799.007,577.373 L 799.007,583.902 Z" stroke-width="0.506" stroke="none" stroke-linecap="round" stroke-linejoin="round" marker-start="none" marker-end="none" stroke-miterlimit="79.8403193612775" fill="url(#LinearGradient_22)"/>
    <path d="M 628.194,586.55 L 628.194,601.644 L 725.81,601.644 C 726.215,601.328 726.63,601.019 727.056,600.722 C 744.591,588.427 766.247,593.777 782.87,601.644 L 901.275,601.644 L 901.275,586.55 L 628.194,586.55 Z" stroke="none" stroke-linejoin="miter" marker-start="none" marker-end="none" fill="url(#LinearGradient_23)"/>
    <path d="M 853.723,561.717 L 863.929,561.744 L 887.911,561.744 L 896.705,570.05 C 897.9,567.146 898.498,563.944 898.354,560.603 C 897.819,548.29 887.391,538.734 875.079,539.266 C 862.764,539.801 853.188,549.405 853.723,561.717 Z" stroke-width="0.453" stroke-linecap="round" stroke="none" stroke-linejoin="round" marker-start="none" marker-end="none" stroke-miterlimit="79.8403193612775" fill="url(#LinearGradient_24)"/>
    <path d="M 845.108,561.717 L 834.902,561.744 L 810.921,561.744 L 802.126,570.05 C 800.931,567.146 800.333,563.944 800.478,560.603 C 801.011,548.29 811.44,538.734 823.752,539.266 C 836.066,539.801 845.643,549.405 845.108,561.717 Z" stroke-width="0.453" stroke-linecap="round" stroke="none" stroke-linejoin="round" marker-start="none" marker-end="none" stroke-miterlimit="79.8403193612775" fill="url(#LinearGradient_25)"/>
    <path d="M 628.194,583.902 L 730.463,583.902 L 730.463,577.917 L 715.592,563.732 L 641.067,563.732 L 628.194,577.373 L 628.194,583.902 Z" stroke-width="0.506" stroke="none" stroke-linecap="round" stroke-linejoin="round" marker-start="none" marker-end="none" stroke-miterlimit="79.8403193612775" fill="url(#LinearGradient_26)"/>
    <path d="M 682.909,561.717 L 693.115,561.744 L 717.096,561.744 L 725.891,570.05 C 727.086,567.146 727.684,563.944 727.54,560.603 C 727.005,548.29 716.577,538.734 704.264,539.266 C 691.951,539.801 682.374,549.405 682.909,561.717 Z" stroke-width="0.453" stroke-linecap="round" stroke="none" stroke-linejoin="round" marker-start="none" marker-end="none" stroke-miterlimit="79.8403193612775" fill="url(#LinearGradient_27)"/>
    <path d="M 674.294,561.717 L 664.088,561.744 L 640.107,561.744 L 631.312,570.05 C 630.116,567.146 629.519,563.944 629.664,560.603 C 630.198,548.29 640.627,538.734 652.939,539.266 C 665.252,539.801 674.828,549.405 674.294,561.717 Z" stroke-width="0.453" stroke-linecap="round" stroke="none" stroke-linejoin="round" marker-start="none" marker-end="none" stroke-miterlimit="79.8403193612775" fill="url(#LinearGradient_28)"/>
   </g>
   <g id="Shoe Car">
    <path d="M 416.541,593.244 C 415.493,593.493 414.493,593.992 413.611,594.61 C 413.099,594.97 412.686,595.463 412.284,595.943 C 411.994,596.29 411.717,596.655 411.504,597.053 C 411.423,597.199 411.399,597.377 411.318,597.523 C 410.876,598.332 410.591,599.563 409.692,599.765 C 409.061,599.906 408.587,599.075 407.988,598.833 C 407.384,598.589 406.748,598.408 406.105,598.308 C 406.044,598.3 405.977,598.318 405.918,598.301 C 405.627,598.216 405.403,597.971 405.129,597.841 C 404.663,597.623 404.167,597.468 403.678,597.308 C 403.455,597.236 403.228,597.15 402.996,597.111 C 401.582,596.87 400.123,596.711 398.697,596.871 C 397.844,596.968 396.979,597.189 396.215,597.586 C 396.038,597.679 395.93,597.886 395.746,597.966 C 395.602,598.028 395.419,597.966 395.279,598.037 C 394.252,598.564 393.52,599.572 392.858,600.517 C 392.612,600.868 392.713,601.568 392.299,601.679 C 391.794,601.814 391.486,600.994 391.003,600.799 C 390.469,600.582 389.872,600.548 389.298,600.499 C 389.016,600.474 388.729,600.462 388.45,600.498 C 387.504,600.619 386.554,600.841 385.683,601.226 C 385.337,601.378 385.027,601.61 384.729,601.843 C 384.119,602.317 383.561,602.863 383.029,603.426 C 382.809,603.659 382.585,603.898 382.409,604.17 C 382.261,604.4 382.203,604.686 382.044,604.91 C 381.94,605.059 381.76,605.153 381.659,605.306 C 381.279,605.887 381.002,606.555 380.875,607.236 C 380.835,607.459 380.938,607.699 380.886,607.918 C 380.85,608.073 380.753,608.211 380.664,608.342 C 380.587,608.455 380.512,608.589 380.391,608.656 C 380.014,608.865 379.491,609.072 379.117,608.862 C 378.925,608.754 378.997,608.426 378.867,608.247 C 378.113,607.208 377.113,606.226 375.913,605.766 C 375.144,605.473 374.23,605.447 373.442,605.685 C 372.033,606.112 370.8,607.13 369.846,608.25 C 369.143,609.077 368.769,610.15 368.404,611.172 C 368.257,611.581 368.27,612.043 368.106,612.447 C 368.005,612.698 367.949,613.066 367.69,613.144 C 367.581,613.175 367.487,613.026 367.377,612.992 C 366.074,612.581 364.682,612.155 363.327,612.331 C 361.574,612.561 359.859,613.391 358.484,614.502 C 354.146,618.01 351.044,622.991 348.594,628.002 C 348.403,628.395 348.338,628.84 348.236,629.264 C 347.673,631.572 347.029,633.894 346.819,636.249 C 346.424,640.634 346.701,645.091 347.302,649.455 C 347.389,650.09 347.525,650.729 347.757,651.328 C 347.883,651.655 348.075,651.958 348.264,652.253 C 348.712,652.957 349.111,653.732 349.746,654.271 C 351.237,655.534 353.124,656.305 354.978,656.921 C 363.372,659.711 371.936,660.894 381.12,661.498 C 390.553,662.12 400.602,663.278 404.822,664.592 L 402.571,651.755 L 402.555,651.666 L 402.554,651.659 L 402.516,651.442 C 402.398,650.488 402.673,649.489 403.36,648.716 C 404.63,647.272 406.834,647.132 408.277,648.404 C 408.893,648.948 409.272,649.662 409.403,650.416 L 409.406,650.416 L 412.076,665.64 C 414.368,666.072 417.076,666.68 420.01,667.543 L 418.559,659.268 L 418.544,659.18 L 418.542,659.171 L 418.504,658.954 C 418.387,658 418.662,657.003 419.348,656.228 C 420.619,654.786 422.823,654.646 424.265,655.918 C 424.879,656.461 425.26,657.175 425.391,657.928 L 425.394,657.928 L 427.545,670.196 C 428.745,670.695 429.957,671.241 431.166,671.835 C 432.616,672.545 434.055,673.297 435.465,674.076 L 433.967,665.534 L 433.951,665.447 L 433.951,665.438 L 433.912,665.22 C 433.795,664.267 434.069,663.27 434.757,662.495 C 436.028,661.052 438.23,660.913 439.674,662.185 C 440.289,662.728 440.668,663.442 440.799,664.195 L 440.802,664.195 L 443.373,678.859 C 446.297,680.779 448.96,682.696 451.213,684.439 L 449.199,672.955 L 449.143,672.64 C 449.026,671.687 449.301,670.69 449.988,669.915 C 451.259,668.472 453.463,668.332 454.905,669.604 C 455.521,670.148 455.9,670.861 456.031,671.615 L 456.033,671.615 L 459.887,693.59 C 464.743,700.626 479.465,711.021 480.639,711.863 C 481.944,712.8 490.832,715.029 496.478,710.343 C 501.365,706.288 495.744,688.64 493.15,686.84 C 489.622,684.39 496.949,680.231 501.31,677.592 C 502.847,676.662 518.405,667.388 526.878,666.168 C 527.437,666.088 531.935,664.908 535.582,665.625 C 539.096,666.314 541.776,668.881 541.781,669.739 C 541.781,669.829 545.773,679.793 551.357,686.295 C 555.315,690.906 558.258,692.557 562.578,692.83 C 566.552,693.08 570.299,690.428 573.572,688.163 C 574.019,687.854 574.406,687.437 574.699,686.98 C 577.363,682.83 578.834,679.094 580.188,673.241 C 581.079,669.391 582.159,654.665 583.768,645.473 C 584.694,640.175 584.41,637.087 587.26,629.722 C 590.735,620.741 587.661,604.762 582.729,604.468 C 582.512,604.454 578.581,602.65 574.749,601.434 C 572.67,600.775 568.774,599.698 564.412,598.715 C 561.219,597.994 557.619,598.702 555.165,598.715 C 554.919,598.716 554.756,598.388 554.621,598.17 C 554.32,597.684 554.505,596.918 554.076,596.539 C 552.635,595.258 550.324,595.153 548.409,595.371 C 548.213,595.393 548.046,595.528 547.871,595.617 C 547.677,595.716 547.488,595.83 547.298,595.935 C 547.117,596.035 546.935,596.136 546.755,596.239 C 546.535,596.363 546.309,596.484 546.097,596.624 C 545.04,597.325 544.304,598.774 543.041,598.898 C 542.899,598.912 542.755,598.813 542.653,598.715 C 542.074,598.147 542.277,596.926 541.565,596.539 C 540.123,595.754 538.212,596.522 536.669,597.082 C 535.441,597.529 534.688,599.006 533.405,599.259 C 532.499,599.437 531.508,599.136 530.685,598.715 C 530.234,598.482 529.962,597.993 529.568,597.672 C 529.062,597.26 528.561,596.81 527.966,596.539 C 527.286,596.227 526.535,595.944 525.789,595.994 C 524.816,596.059 523.84,596.484 523.07,597.082 C 522.674,597.389 522.649,598.114 522.185,598.296 C 521.089,598.726 520.266,598.388 518.718,597.626 C 517.108,596.835 516.217,596.721 514.911,596.539 C 514.013,596.413 513.079,596.367 512.19,596.539 C 511.231,596.722 510.285,597.089 509.471,597.626 C 509.042,597.908 508.886,598.744 508.382,598.715 C 507.841,598.683 506.894,598.852 506.206,598.715 C 505.748,598.623 505.068,598.043 504.574,597.626 C 503.45,596.675 502.165,596.267 500.222,596.539 C 499.664,596.615 498.668,596.499 498.59,596.539 C 497.979,596.845 496.027,597.674 495.326,598.715 C 494.941,599.287 495.146,599.624 494.783,599.802 C 493.952,600.208 492.937,599.558 492.063,599.259 C 491.296,598.996 490.969,598.512 489.886,598.17 C 487.769,597.503 486.977,597.124 483.903,597.626 C 482.51,597.853 482.248,599.195 479.007,599.259 C 478.87,599.261 478.243,598.88 477.919,598.17 C 477.673,597.628 477.816,596.903 477.374,596.539 C 476.34,595.68 474.719,596.047 473.376,595.993 C 472.531,595.959 471.509,595.654 470.841,596.129 C 469.808,596.864 468.835,597.976 467.039,598.17 C 465.831,598.301 464.814,595.994 463.863,595.628 C 461.84,594.85 457.64,596.323 456.868,596.831 C 456.441,597.111 455.616,596.877 454.527,596.539 C 453.759,596.297 454.043,594.979 453.44,594.906 C 452.566,594.802 451.674,594.761 450.79,594.741 C 449.062,594.699 447.289,594.442 445.6,594.817 C 445.099,594.928 444.579,594.987 444.191,595.451 C 443.641,596.113 443.881,596.898 443.331,597.294 C 442.528,597.871 441.217,598.158 440.384,597.626 C 439.901,597.317 440.187,596.449 439.84,595.994 C 439.443,595.476 438.827,595.115 438.209,594.906 C 436.911,594.468 435.474,594.606 434.106,594.645 C 432.777,594.683 431.397,594.689 430.141,595.126 C 429.583,595.321 429.108,595.712 428.627,596.055 C 428.298,596.292 428.095,596.785 427.693,596.833 C 427.575,596.848 427.479,596.724 427.369,596.676 C 427.169,596.589 426.947,596.549 426.758,596.438 C 426.701,596.404 426.655,596.348 426.603,596.306 C 425.746,595.611 425.004,594.701 423.989,594.269 C 421.781,593.327 419.256,593.37 416.859,593.234 C 416.754,593.229 416.644,593.22 416.541,593.244 Z M 402.516,651.442 L 402.555,651.666 L 402.571,651.766 C 402.546,651.659 402.528,651.549 402.516,651.442 Z M 418.504,658.954 L 418.544,659.18 L 418.559,659.279 C 418.535,659.171 418.516,659.063 418.504,658.954 Z M 433.912,665.22 L 433.951,665.447 L 433.967,665.546 C 433.943,665.438 433.925,665.329 433.912,665.22 Z M 449.183,672.859 L 449.143,672.64 C 449.157,672.749 449.175,672.859 449.199,672.966 L 449.183,672.859 Z" stroke="none" stroke-linejoin="miter" marker-start="none" marker-end="none" fill="url(#LinearGradient_29)"/>
    <path d="M 330.939,586.55 L 330.939,601.423 L 370.471,601.423 C 371.14,600.893 371.885,600.464 372.687,600.225 C 373.482,599.988 374.403,600.012 375.179,600.307 C 375.826,600.552 376.416,600.948 376.942,601.423 L 380.259,601.423 C 380.407,600.865 380.653,600.325 380.97,599.846 C 381.071,599.691 381.253,599.599 381.359,599.449 C 381.518,599.226 381.576,598.941 381.726,598.71 C 381.902,598.438 382.129,598.201 382.351,597.964 C 382.888,597.402 383.45,596.858 384.066,596.382 C 384.367,596.15 384.679,595.917 385.026,595.766 C 385.906,595.382 386.862,595.158 387.815,595.037 C 388.097,595.003 388.386,595.014 388.669,595.038 C 389.249,595.088 389.851,595.121 390.389,595.338 C 390.877,595.533 391.187,596.352 391.694,596.22 C 392.112,596.108 392.01,595.407 392.259,595.056 C 392.927,594.111 393.664,593.104 394.7,592.578 C 394.84,592.505 395.026,592.568 395.17,592.505 C 395.355,592.424 395.465,592.217 395.644,592.125 C 396.413,591.73 397.284,591.508 398.146,591.412 C 399.582,591.25 401.053,591.411 402.479,591.65 C 402.713,591.69 402.941,591.775 403.167,591.848 C 403.659,592.008 404.159,592.162 404.628,592.381 C 404.905,592.51 405.132,592.756 405.425,592.841 C 405.484,592.857 405.551,592.839 405.613,592.847 C 406.262,592.948 406.903,593.128 407.51,593.372 C 408.115,593.615 408.592,594.446 409.228,594.305 C 410.136,594.103 410.421,592.872 410.868,592.064 C 410.949,591.916 410.974,591.74 411.055,591.59 C 411.269,591.195 411.549,590.827 411.841,590.483 C 412.247,590.003 412.663,589.51 413.181,589.148 C 414.069,588.53 415.076,588.033 416.132,587.783 C 416.237,587.76 416.348,587.77 416.453,587.775 C 418.869,587.909 421.415,587.868 423.641,588.809 C 424.664,589.241 425.411,590.151 426.275,590.846 C 426.328,590.888 426.374,590.943 426.433,590.978 C 426.621,591.089 426.848,591.128 427.048,591.216 C 427.158,591.264 427.256,591.387 427.374,591.373 C 427.78,591.323 427.984,590.831 428.316,590.596 C 428.801,590.251 429.279,589.861 429.843,589.666 C 431.109,589.228 432.498,589.222 433.839,589.185 C 435.218,589.145 436.666,589.009 437.973,589.447 C 438.598,589.655 439.22,590.015 439.619,590.534 C 439.968,590.99 439.682,591.858 440.168,592.166 C 441.007,592.696 442.329,592.409 443.137,591.833 C 443.693,591.44 443.45,590.654 444.006,589.989 C 444.396,589.525 444.92,589.467 445.426,589.356 C 447.128,588.98 448.913,589.24 450.657,589.28 C 451.548,589.301 452.447,589.342 453.329,589.447 C 453.936,589.519 453.65,590.837 454.425,591.078 C 455.522,591.418 456.354,591.65 456.784,591.369 C 457.563,590.863 461.795,589.389 463.834,590.167 C 464.793,590.534 465.819,592.841 467.036,592.71 C 468.848,592.514 469.827,591.403 470.869,590.667 C 471.542,590.192 472.572,590.499 473.424,590.533 C 474.778,590.588 476.413,590.22 477.456,591.078 C 477.9,591.442 477.756,592.167 478.003,592.71 C 478.331,593.42 478.963,593.801 479.101,593.798 C 482.368,593.736 482.632,592.392 484.036,592.166 C 487.135,591.663 487.933,592.043 490.069,592.71 C 491.159,593.05 491.488,593.535 492.262,593.798 C 493.141,594.098 494.165,594.748 495.003,594.342 C 495.371,594.164 495.164,593.828 495.551,593.254 C 496.257,592.212 498.226,591.383 498.842,591.078 C 498.919,591.039 499.923,591.155 500.487,591.078 C 502.446,590.807 503.74,591.215 504.875,592.166 C 505.371,592.585 506.057,593.162 506.519,593.254 C 507.211,593.393 508.167,593.222 508.713,593.254 C 509.22,593.283 509.377,592.448 509.809,592.166 C 510.631,591.631 511.585,591.261 512.55,591.078 C 513.447,590.908 514.39,590.952 515.294,591.078 C 516.609,591.26 517.508,591.374 519.131,592.166 C 520.692,592.927 521.522,593.266 522.627,592.835 C 523.095,592.653 523.119,591.929 523.518,591.621 C 524.295,591.023 525.278,590.601 526.26,590.534 C 527.012,590.485 527.768,590.766 528.452,591.078 C 529.052,591.35 529.559,591.8 530.069,592.211 C 530.467,592.532 530.739,593.022 531.195,593.254 C 532.025,593.675 533.024,593.977 533.938,593.798 C 535.229,593.544 535.989,592.069 537.227,591.621 C 538.783,591.06 540.708,590.293 542.162,591.078 C 542.881,591.464 542.676,592.687 543.259,593.254 C 543.362,593.353 543.509,593.451 543.65,593.438 C 544.924,593.313 545.665,591.865 546.731,591.165 C 546.944,591.023 547.171,590.904 547.393,590.778 C 547.576,590.676 547.76,590.575 547.942,590.475 C 548.132,590.369 548.322,590.255 548.519,590.159 C 548.695,590.069 548.863,589.932 549.06,589.909 C 550.993,589.692 553.321,589.798 554.775,591.078 C 555.206,591.457 555.019,592.222 555.323,592.71 C 555.459,592.927 555.624,593.254 555.871,593.254 C 558.345,593.241 561.975,592.533 565.194,593.254 C 569.59,594.238 573.518,595.316 575.613,595.974 C 579.476,597.189 583.437,598.992 583.657,599.007 C 584.799,599.074 585.844,599.972 586.732,601.423 L 604.021,601.423 L 604.021,586.55 L 330.939,586.55 Z" stroke="none" stroke-linejoin="miter" marker-start="none" marker-end="none" fill="url(#LinearGradient_30)"/>
    <path d="M 501.752,583.902 L 604.021,583.902 L 604.021,577.917 L 589.151,563.732 L 514.624,563.732 L 501.752,577.373 L 501.752,583.902 Z" stroke-width="0.506" stroke="none" stroke-linecap="round" stroke-linejoin="round" marker-start="none" marker-end="none" stroke-miterlimit="79.8403193612775" fill="url(#LinearGradient_31)"/>
    <path d="M 556.467,561.717 L 566.674,561.744 L 590.654,561.744 L 599.45,570.05 C 600.645,567.146 601.242,563.944 601.098,560.603 C 600.564,548.29 590.135,538.734 577.822,539.266 C 565.509,539.801 555.933,549.405 556.467,561.717 Z" stroke-width="0.453" stroke-linecap="round" stroke="none" stroke-linejoin="round" marker-start="none" marker-end="none" stroke-miterlimit="79.8403193612775" fill="url(#LinearGradient_32)"/>
    <path d="M 547.853,561.717 L 537.646,561.744 L 513.665,561.744 L 504.871,570.05 C 503.674,567.146 503.078,563.944 503.222,560.603 C 503.756,548.29 514.185,538.734 526.497,539.266 C 538.81,539.801 548.387,549.405 547.853,561.717 Z" stroke-width="0.453" stroke-linecap="round" stroke="none" stroke-linejoin="round" marker-start="none" marker-end="none" stroke-miterlimit="79.8403193612775" fill="url(#LinearGradient_33)"/>
    <path d="M 330.937,583.902 L 433.207,583.902 L 433.207,577.917 L 418.337,563.732 L 343.81,563.732 L 330.937,577.373 L 330.937,583.902 Z" stroke-width="0.506" stroke="none" stroke-linecap="round" stroke-linejoin="round" marker-start="none" marker-end="none" stroke-miterlimit="79.8403193612775" fill="url(#LinearGradient_34)"/>
    <path d="M 385.653,561.717 L 395.86,561.744 L 419.841,561.744 L 428.635,570.05 C 429.831,567.146 430.427,563.944 430.284,560.603 C 429.75,548.29 419.321,538.734 407.009,539.266 C 394.695,539.801 385.118,549.405 385.653,561.717 Z" stroke-width="0.453" stroke-linecap="round" stroke="none" stroke-linejoin="round" marker-start="none" marker-end="none" stroke-miterlimit="79.8403193612775" fill="url(#LinearGradient_35)"/>
    <path d="M 377.038,561.717 L 366.832,561.744 L 342.851,561.744 L 334.057,570.05 C 332.86,567.146 332.264,563.944 332.407,560.603 C 332.941,548.29 343.371,538.734 355.683,539.266 C 367.997,539.801 377.573,549.405 377.038,561.717 Z" stroke-width="0.453" stroke-linecap="round" stroke="none" stroke-linejoin="round" marker-start="none" marker-end="none" stroke-miterlimit="79.8403193612775" fill="url(#LinearGradient_36)"/>
   </g>
   <g id="Caboose">
    <path d="M 957.749,604.546 L 957.749,689.385 L 1171.55,689.385 L 1171.55,604.546 L 957.749,604.546 Z M 1043.98,628.906 C 1050.4,627.834 1057.37,627.245 1064.65,627.245 C 1096.78,627.245 1122.86,638.701 1122.86,652.812 C 1122.86,666.925 1096.78,678.38 1064.65,678.38 C 1032.52,678.38 1006.45,666.925 1006.45,652.812 C 1006.45,645.333 1013.77,638.598 1025.44,633.92 C 1026.3,627.843 1023.8,621.199 1019.87,614.315 C 1027.59,617.16 1035.53,621.331 1043.98,628.906 Z" stroke-width="0.605" stroke-linecap="round" stroke="none" stroke-linejoin="miter" marker-start="none" marker-end="none" stroke-miterlimit="79.8403193612775" fill="url(#LinearGradient_37)"/>
    <path d="M 935.111,702.354 C 931.525,701.68 929.701,698.147 928.834,693.651 L 1200.47,693.651 C 1200.09,697.47 1198.03,700.631 1192.37,702.354 L 935.111,702.354 Z" stroke="none" stroke-width="0.605" stroke-linecap="round" stroke-linejoin="miter" marker-start="none" marker-end="none" stroke-miterlimit="79.8403193612775" fill="url(#LinearGradient_38)"/>
    <path d="M 1023.51,705.619 L 1023.51,742.608 L 1105.8,742.608 L 1105.8,705.619 L 1023.51,705.619 Z M 1084.12,711.058 L 1084.12,737.169 L 1045.19,737.169 L 1045.19,711.058 L 1084.12,711.058 Z" stroke-width="0.605" stroke-linecap="round" stroke="none" stroke-linejoin="miter" marker-start="none" marker-end="none" stroke-miterlimit="79.8403193612775" fill="url(#LinearGradient_39)"/>
    <path d="M 1017.96,752.4 C 1015.07,752.177 1012.34,749.426 1012.17,744.785 L 1117.14,744.785 C 1117.08,747.815 1116.98,750.828 1112.25,752.4 L 1017.96,752.4 Z" stroke="none" stroke-width="0.605" stroke-linecap="round" stroke-linejoin="miter" marker-start="none" marker-end="none" stroke-miterlimit="79.8403193612775" fill="url(#LinearGradient_40)"/>
    <path d="M 1098.2,583.902 L 1200.47,583.902 L 1200.47,577.917 L 1185.6,563.732 L 1111.07,563.732 L 1098.2,577.373 L 1098.2,583.902 Z" stroke-width="0.506" stroke="none" stroke-linecap="round" stroke-linejoin="round" marker-start="none" marker-end="none" stroke-miterlimit="79.8403193612775" fill="url(#LinearGradient_41)"/>
    <path d="M 1152.92,561.717 L 1163.12,561.744 L 1187.1,561.744 L 1195.9,570.05 C 1197.09,567.146 1197.69,563.944 1197.55,560.603 C 1197.01,548.29 1186.58,538.734 1174.27,539.266 C 1161.96,539.801 1152.38,549.405 1152.92,561.717 Z" stroke-width="0.453" stroke-linecap="round" stroke="none" stroke-linejoin="round" marker-start="none" marker-end="none" stroke-miterlimit="79.8403193612775" fill="url(#LinearGradient_42)"/>
    <path d="M 1144.3,561.717 L 1134.1,561.744 L 1110.11,561.744 L 1101.32,570.05 C 1100.12,567.146 1099.53,563.944 1099.67,560.603 C 1100.2,548.29 1110.63,538.734 1122.94,539.266 C 1135.26,539.801 1144.84,549.405 1144.3,561.717 Z" stroke-width="0.453" stroke-linecap="round" stroke="none" stroke-linejoin="round" marker-start="none" marker-end="none" stroke-miterlimit="79.8403193612775" fill="url(#LinearGradient_43)"/>
    <path d="M 927.386,583.902 L 1029.66,583.902 L 1029.66,577.917 L 1014.79,563.732 L 940.258,563.732 L 927.386,577.373 L 927.386,583.902 Z" stroke-width="0.506" stroke="none" stroke-linecap="round" stroke-linejoin="round" marker-start="none" marker-end="none" stroke-miterlimit="79.8403193612775" fill="url(#LinearGradient_44)"/>
    <path d="M 982.101,561.717 L 992.308,561.744 L 1016.29,561.744 L 1025.08,570.05 C 1026.28,567.146 1026.88,563.944 1026.73,560.603 C 1026.2,548.29 1015.77,538.734 1003.46,539.266 C 991.143,539.801 981.567,549.405 982.101,561.717 Z" stroke-width="0.453" stroke-linecap="round" stroke="none" stroke-linejoin="round" marker-start="none" marker-end="none" stroke-miterlimit="79.8403193612775" fill="url(#LinearGradient_45)"/>
    <path d="M 973.487,561.717 L 963.28,561.744 L 939.299,561.744 L 930.505,570.05 C 929.308,567.146 928.712,563.944 928.855,560.603 C 929.39,548.29 939.819,538.734 952.131,539.266 C 964.445,539.801 974.021,549.405 973.487,561.717 Z" stroke-width="0.453" stroke-linecap="round" stroke="none" stroke-linejoin="round" marker-start="none" marker-end="none" stroke-miterlimit="79.8403193612775" fill="url(#LinearGradient_46)"/>
    <path d="M 927.386,601.643 L 927.386,586.548 L 1200.47,586.548 L 1200.47,601.643 L 927.386,601.643 Z" stroke="none" stroke-width="0.605" stroke-linecap="round" stroke-linejoin="miter" marker-start="none" marker-end="none" stroke-miterlimit="79.8403193612775" fill="url(#LinearGradient_47)"/>
    <path d="M 927.388,646.277 L 927.388,611.074 C 927.388,608.779 928.972,606.916 930.923,606.916 L 930.924,606.916 C 932.875,606.916 934.459,608.779 934.459,611.074 L 934.459,646.277 C 934.459,648.571 932.875,650.434 930.924,650.434 L 930.923,650.434 C 928.972,650.434 927.388,648.571 927.388,646.277 Z" stroke="none" stroke-width="0.605" stroke-linecap="round" stroke-linejoin="miter" marker-start="none" marker-end="none" stroke-miterlimit="79.8403193612775" fill="url(#LinearGradient_48)"/>
    <path d="M 1193.4,646.29 L 1193.4,611.087 C 1193.4,608.792 1194.98,606.929 1196.93,606.929 L 1196.93,606.929 C 1198.89,606.929 1200.47,608.792 1200.47,611.087 L 1200.47,646.29 C 1200.47,648.584 1198.89,650.447 1196.93,650.447 L 1196.93,650.447 C 1194.98,650.447 1193.4,648.584 1193.4,646.29 Z" stroke="none" stroke-width="0.605" stroke-linecap="round" stroke-linejoin="miter" marker-start="none" marker-end="none" stroke-miterlimit="79.8403193612775" fill="url(#LinearGradient_49)"/>
    <path d="M 1045.79,650.228 C 1047.6,652.63 1051.01,653.117 1053.41,651.316 C 1055.81,649.515 1056.3,646.102 1054.5,643.7 C 1052.7,641.298 1049.28,640.811 1046.88,642.612 C 1044.48,644.413 1043.99,647.826 1045.79,650.228 Z" stroke-linecap="round" stroke-linejoin="miter" stroke="none" stroke-width="0.605" marker-start="none" marker-end="none" stroke-miterlimit="79.8403193612775" fill="url(#LinearGradient_50)"/>
    <path d="M 1059.94,650.228 C 1061.74,652.63 1065.15,653.117 1067.55,651.316 C 1069.95,649.515 1070.44,646.102 1068.64,643.7 C 1066.84,641.298 1063.43,640.811 1061.02,642.612 C 1058.62,644.413 1058.14,647.826 1059.94,650.228 Z" stroke-linecap="round" stroke-linejoin="miter" stroke="none" stroke-width="0.605" marker-start="none" marker-end="none" stroke-miterlimit="79.8403193612775" fill="url(#LinearGradient_51)"/>
    <path d="M 1074.8,650.228 C 1076.6,652.63 1080.02,653.117 1082.42,651.316 C 1084.82,649.515 1085.31,646.102 1083.51,643.7 C 1081.7,641.298 1078.29,640.811 1075.89,642.612 C 1073.49,644.413 1073,647.826 1074.8,650.228 Z" stroke-linecap="round" stroke-linejoin="miter" stroke="none" stroke-width="0.605" marker-start="none" marker-end="none" stroke-miterlimit="79.8403193612775" fill="url(#LinearGradient_52)"/>
   </g>
   <g id="Title">
    <text xml:space="preserve" transform="translate(46.286 446.342) scale(1 -1)" fill="#000000" stroke-linejoin="round" stroke-linecap="round" stroke="none" stroke-width="0.302" font-family="Itim" stroke-miterlimit="79.8403193612775"><tspan x="0" y="0" font-size="87.038">Function Junction Therapy</tspan><tspan x="1004.297" y="0" font-size="58.025">, LLC</tspan></text>
    <text xml:space="preserve" transform="translate(195.113 386.829) scale(1 -1)" fill="#000000" font-size="48.355" stroke-linejoin="round" stroke-linecap="round" stroke="none" stroke-width="0.302" font-family="Source Sans Pro" stroke-miterlimit="79.8403193612775"><tspan x="0" y="0">P</tspan><tspan x="33.486" y="0">h</tspan><tspan x="65.413" y="0">y</tspan><tspan x="93.61" y="0">s</tspan><tspan x="119.493" y="0">i</tspan><tspan x="137.018" y="0">c</tspan><tspan x="164.696" y="0">a</tspan><tspan x="195.089" y="0">l </tspan><tspan x="228.439" y="0">- </tspan><tspan x="264.504" y="0">O</tspan><tspan x="302.24" y="0">c</tspan><tspan x="329.918" y="0">c</tspan><tspan x="357.596" y="0">u</tspan><tspan x="389.523" y="0">p</tspan><tspan x="421.994" y="0">a</tspan><tspan x="452.387" y="0">t</tspan><tspan x="474.351" y="0">i</tspan><tspan x="491.876" y="0">o</tspan><tspan x="523.709" y="0">n</tspan><tspan x="555.778" y="0">a</tspan><tspan x="586.171" y="0">l </tspan><tspan x="619.521" y="0">- </tspan><tspan x="655.586" y="0">S</tspan><tspan x="687.041" y="0">p</tspan><tspan x="719.512" y="0">e</tspan><tspan x="749.126" y="0">e</tspan><tspan x="778.74" y="0">c</tspan><tspan x="806.418" y="0">h</tspan></text>
   </g>
  </g>
 </g>
</svg>
